<?xml version="1.0" encoding="utf-8" standalone="no"?>
<!DOCTYPE svg PUBLIC "-//W3C//DTD SVG 1.1//EN"
  "http://www.w3.org/Graphics/SVG/1.1/DTD/svg11.dtd">
<svg xmlns:xlink="http://www.w3.org/1999/xlink" width="149.640131pt" height="149.199131pt" viewBox="0 0 149.640131 149.199131" xmlns="http://www.w3.org/2000/svg" version="1.1">
 <metadata>
  <rdf:RDF xmlns:dc="http://purl.org/dc/elements/1.1/" xmlns:cc="http://creativecommons.org/ns#" xmlns:rdf="http://www.w3.org/1999/02/22-rdf-syntax-ns#">
   <cc:Work>
    <dc:type rdf:resource="http://purl.org/dc/dcmitype/StillImage"/>
    <dc:date>2026-07-01T12:17:40.702702</dc:date>
    <dc:format>image/svg+xml</dc:format>
    <dc:creator>
     <cc:Agent>
      <dc:title>Matplotlib v3.10.7, https://matplotlib.org/</dc:title>
     </cc:Agent>
    </dc:creator>
   </cc:Work>
  </rdf:RDF>
 </metadata>
 <defs>
  <style type="text/css">*{stroke-linejoin: round; stroke-linecap: butt}</style>
 </defs>
 <g id="figure_1">
  <g id="patch_1">
   <path d="M 0 149.199131 
L 149.640131 149.199131 
L 149.640131 0 
L 0 0 
z
" style="fill: #ffffff"/>
  </g>
  <g id="axes_1">
   <g id="patch_2">
    <path d="M 9.923288 135.656381 
L 137.435288 135.656381 
L 137.435288 8.144381 
L 9.923288 8.144381 
z
" style="fill: #ffffff"/>
   </g>
   <g id="patch_3">
    <path d="M 28.139288 30.003581 
C 29.105475 30.003581 30.032221 29.619711 30.715419 28.936513 
C 31.398617 28.253315 31.782488 27.326569 31.782488 26.360381 
C 31.782488 25.394193 31.398617 24.467448 30.715419 23.78425 
C 30.032221 23.101052 29.105475 22.717181 28.139288 22.717181 
C 27.1731 22.717181 26.246354 23.101052 25.563156 23.78425 
C 24.879958 24.467448 24.496088 25.394193 24.496088 26.360381 
C 24.496088 27.326569 24.879958 28.253315 25.563156 28.936513 
C 26.246354 29.619711 27.1731 30.003581 28.139288 30.003581 
z
" clip-path="url(#p7b8ed83586)" style="fill: #c8c8c8; opacity: 0.3"/>
   </g>
   <g id="patch_4">
    <path d="M 128.327288 30.003581 
C 129.293475 30.003581 130.220221 29.619711 130.903419 28.936513 
C 131.586617 28.253315 131.970488 27.326569 131.970488 26.360381 
C 131.970488 25.394193 131.586617 24.467448 130.903419 23.78425 
C 130.220221 23.101052 129.293475 22.717181 128.327288 22.717181 
C 127.3611 22.717181 126.434354 23.101052 125.751156 23.78425 
C 125.067958 24.467448 124.684088 25.394193 124.684088 26.360381 
C 124.684088 27.326569 125.067958 28.253315 125.751156 28.936513 
C 126.434354 29.619711 127.3611 30.003581 128.327288 30.003581 
z
" clip-path="url(#p7b8ed83586)" style="fill: #fce6d5; opacity: 0.4; stroke: #000000; stroke-linejoin: miter"/>
   </g>
   <g id="patch_5">
    <path d="M 28.139288 130.191581 
C 29.105475 130.191581 30.032221 129.807711 30.715419 129.124513 
C 31.398617 128.441315 31.782488 127.514569 31.782488 126.548381 
C 31.782488 125.582193 31.398617 124.655448 30.715419 123.97225 
C 30.032221 123.289052 29.105475 122.905181 28.139288 122.905181 
C 27.1731 122.905181 26.246354 123.289052 25.563156 123.97225 
C 24.879958 124.655448 24.496088 125.582193 24.496088 126.548381 
C 24.496088 127.514569 24.879958 128.441315 25.563156 129.124513 
C 26.246354 129.807711 27.1731 130.191581 28.139288 130.191581 
z
" clip-path="url(#p7b8ed83586)" style="fill: #c8c8c8; opacity: 0.3"/>
   </g>
   <g id="patch_6">
    <path d="M 128.327288 130.191581 
C 129.293475 130.191581 130.220221 129.807711 130.903419 129.124513 
C 131.586617 128.441315 131.970488 127.514569 131.970488 126.548381 
C 131.970488 125.582193 131.586617 124.655448 130.903419 123.97225 
C 130.220221 123.289052 129.293475 122.905181 128.327288 122.905181 
C 127.3611 122.905181 126.434354 123.289052 125.751156 123.97225 
C 125.067958 124.655448 124.684088 125.582193 124.684088 126.548381 
C 124.684088 127.514569 125.067958 128.441315 125.751156 129.124513 
C 126.434354 129.807711 127.3611 130.191581 128.327288 130.191581 
z
" clip-path="url(#p7b8ed83586)" style="fill: #c8c8c8; opacity: 0.3"/>
   </g>
   <g id="patch_7">
    <path d="M 46.355288 30.003581 
C 47.321475 30.003581 48.248221 29.619711 48.931419 28.936513 
C 49.614617 28.253315 49.998488 27.326569 49.998488 26.360381 
C 49.998488 25.394193 49.614617 24.467448 48.931419 23.78425 
C 48.248221 23.101052 47.321475 22.717181 46.355288 22.717181 
C 45.3891 22.717181 44.462354 23.101052 43.779156 23.78425 
C 43.095958 24.467448 42.712088 25.394193 42.712088 26.360381 
C 42.712088 27.326569 43.095958 28.253315 43.779156 28.936513 
C 44.462354 29.619711 45.3891 30.003581 46.355288 30.003581 
z
" clip-path="url(#p7b8ed83586)" style="fill: #fce6d5; opacity: 0.4; stroke: #000000; stroke-linejoin: miter"/>
   </g>
   <g id="patch_8">
    <path d="M 46.355288 130.191581 
C 47.321475 130.191581 48.248221 129.807711 48.931419 129.124513 
C 49.614617 128.441315 49.998488 127.514569 49.998488 126.548381 
C 49.998488 125.582193 49.614617 124.655448 48.931419 123.97225 
C 48.248221 123.289052 47.321475 122.905181 46.355288 122.905181 
C 45.3891 122.905181 44.462354 123.289052 43.779156 123.97225 
C 43.095958 124.655448 42.712088 125.582193 42.712088 126.548381 
C 42.712088 127.514569 43.095958 128.441315 43.779156 129.124513 
C 44.462354 129.807711 45.3891 130.191581 46.355288 130.191581 
z
" clip-path="url(#p7b8ed83586)" style="fill: #c8c8c8; opacity: 0.3"/>
   </g>
   <g id="patch_9">
    <path d="M 55.463288 30.003581 
C 56.429475 30.003581 57.356221 29.619711 58.039419 28.936513 
C 58.722617 28.253315 59.106488 27.326569 59.106488 26.360381 
C 59.106488 25.394193 58.722617 24.467448 58.039419 23.78425 
C 57.356221 23.101052 56.429475 22.717181 55.463288 22.717181 
C 54.4971 22.717181 53.570354 23.101052 52.887156 23.78425 
C 52.203958 24.467448 51.820088 25.394193 51.820088 26.360381 
C 51.820088 27.326569 52.203958 28.253315 52.887156 28.936513 
C 53.570354 29.619711 54.4971 30.003581 55.463288 30.003581 
z
" clip-path="url(#p7b8ed83586)" style="fill: #fce6d5; opacity: 0.4; stroke: #000000; stroke-linejoin: miter"/>
   </g>
   <g id="patch_10">
    <path d="M 55.463288 130.191581 
C 56.429475 130.191581 57.356221 129.807711 58.039419 129.124513 
C 58.722617 128.441315 59.106488 127.514569 59.106488 126.548381 
C 59.106488 125.582193 58.722617 124.655448 58.039419 123.97225 
C 57.356221 123.289052 56.429475 122.905181 55.463288 122.905181 
C 54.4971 122.905181 53.570354 123.289052 52.887156 123.97225 
C 52.203958 124.655448 51.820088 125.582193 51.820088 126.548381 
C 51.820088 127.514569 52.203958 128.441315 52.887156 129.124513 
C 53.570354 129.807711 54.4971 130.191581 55.463288 130.191581 
z
" clip-path="url(#p7b8ed83586)" style="fill: #c8c8c8; opacity: 0.3"/>
   </g>
   <g id="patch_11">
    <path d="M 64.571288 30.003581 
C 65.537475 30.003581 66.464221 29.619711 67.147419 28.936513 
C 67.830617 28.253315 68.214488 27.326569 68.214488 26.360381 
C 68.214488 25.394193 67.830617 24.467448 67.147419 23.78425 
C 66.464221 23.101052 65.537475 22.717181 64.571288 22.717181 
C 63.6051 22.717181 62.678354 23.101052 61.995156 23.78425 
C 61.311958 24.467448 60.928088 25.394193 60.928088 26.360381 
C 60.928088 27.326569 61.311958 28.253315 61.995156 28.936513 
C 62.678354 29.619711 63.6051 30.003581 64.571288 30.003581 
z
" clip-path="url(#p7b8ed83586)" style="fill: #fce6d5; opacity: 0.4; stroke: #000000; stroke-linejoin: miter"/>
   </g>
   <g id="patch_12">
    <path d="M 64.571288 130.191581 
C 65.537475 130.191581 66.464221 129.807711 67.147419 129.124513 
C 67.830617 128.441315 68.214488 127.514569 68.214488 126.548381 
C 68.214488 125.582193 67.830617 124.655448 67.147419 123.97225 
C 66.464221 123.289052 65.537475 122.905181 64.571288 122.905181 
C 63.6051 122.905181 62.678354 123.289052 61.995156 123.97225 
C 61.311958 124.655448 60.928088 125.582193 60.928088 126.548381 
C 60.928088 127.514569 61.311958 128.441315 61.995156 129.124513 
C 62.678354 129.807711 63.6051 130.191581 64.571288 130.191581 
z
" clip-path="url(#p7b8ed83586)" style="fill: #c8c8c8; opacity: 0.3"/>
   </g>
   <g id="patch_13">
    <path d="M 73.679288 30.003581 
C 74.645475 30.003581 75.572221 29.619711 76.255419 28.936513 
C 76.938617 28.253315 77.322488 27.326569 77.322488 26.360381 
C 77.322488 25.394193 76.938617 24.467448 76.255419 23.78425 
C 75.572221 23.101052 74.645475 22.717181 73.679288 22.717181 
C 72.7131 22.717181 71.786354 23.101052 71.103156 23.78425 
C 70.419958 24.467448 70.036088 25.394193 70.036088 26.360381 
C 70.036088 27.326569 70.419958 28.253315 71.103156 28.936513 
C 71.786354 29.619711 72.7131 30.003581 73.679288 30.003581 
z
" clip-path="url(#p7b8ed83586)" style="fill: #fce6d5; opacity: 0.4; stroke: #000000; stroke-linejoin: miter"/>
   </g>
   <g id="patch_14">
    <path d="M 73.679288 130.191581 
C 74.645475 130.191581 75.572221 129.807711 76.255419 129.124513 
C 76.938617 128.441315 77.322488 127.514569 77.322488 126.548381 
C 77.322488 125.582193 76.938617 124.655448 76.255419 123.97225 
C 75.572221 123.289052 74.645475 122.905181 73.679288 122.905181 
C 72.7131 122.905181 71.786354 123.289052 71.103156 123.97225 
C 70.419958 124.655448 70.036088 125.582193 70.036088 126.548381 
C 70.036088 127.514569 70.419958 128.441315 71.103156 129.124513 
C 71.786354 129.807711 72.7131 130.191581 73.679288 130.191581 
z
" clip-path="url(#p7b8ed83586)" style="fill: #c8c8c8; opacity: 0.3"/>
   </g>
   <g id="patch_15">
    <path d="M 82.787288 30.003581 
C 83.753475 30.003581 84.680221 29.619711 85.363419 28.936513 
C 86.046617 28.253315 86.430487 27.326569 86.430487 26.360381 
C 86.430487 25.394193 86.046617 24.467448 85.363419 23.78425 
C 84.680221 23.101052 83.753475 22.717181 82.787288 22.717181 
C 81.8211 22.717181 80.894354 23.101052 80.211156 23.78425 
C 79.527958 24.467448 79.144088 25.394193 79.144088 26.360381 
C 79.144088 27.326569 79.527958 28.253315 80.211156 28.936513 
C 80.894354 29.619711 81.8211 30.003581 82.787288 30.003581 
z
" clip-path="url(#p7b8ed83586)" style="fill: #fce6d5; opacity: 0.4; stroke: #000000; stroke-linejoin: miter"/>
   </g>
   <g id="patch_16">
    <path d="M 82.787288 130.191581 
C 83.753475 130.191581 84.680221 129.807711 85.363419 129.124513 
C 86.046617 128.441315 86.430487 127.514569 86.430487 126.548381 
C 86.430487 125.582193 86.046617 124.655448 85.363419 123.97225 
C 84.680221 123.289052 83.753475 122.905181 82.787288 122.905181 
C 81.8211 122.905181 80.894354 123.289052 80.211156 123.97225 
C 79.527958 124.655448 79.144088 125.582193 79.144088 126.548381 
C 79.144088 127.514569 79.527958 128.441315 80.211156 129.124513 
C 80.894354 129.807711 81.8211 130.191581 82.787288 130.191581 
z
" clip-path="url(#p7b8ed83586)" style="fill: #c8c8c8; opacity: 0.3"/>
   </g>
   <g id="patch_17">
    <path d="M 91.895287 30.003581 
C 92.861475 30.003581 93.788221 29.619711 94.471419 28.936513 
C 95.154617 28.253315 95.538488 27.326569 95.538488 26.360381 
C 95.538488 25.394193 95.154617 24.467448 94.471419 23.78425 
C 93.788221 23.101052 92.861475 22.717181 91.895287 22.717181 
C 90.9291 22.717181 90.002354 23.101052 89.319156 23.78425 
C 88.635958 24.467448 88.252087 25.394193 88.252087 26.360381 
C 88.252087 27.326569 88.635958 28.253315 89.319156 28.936513 
C 90.002354 29.619711 90.9291 30.003581 91.895287 30.003581 
z
" clip-path="url(#p7b8ed83586)" style="fill: #fce6d5; opacity: 0.4; stroke: #000000; stroke-linejoin: miter"/>
   </g>
   <g id="patch_18">
    <path d="M 91.895287 130.191581 
C 92.861475 130.191581 93.788221 129.807711 94.471419 129.124513 
C 95.154617 128.441315 95.538488 127.514569 95.538488 126.548381 
C 95.538488 125.582193 95.154617 124.655448 94.471419 123.97225 
C 93.788221 123.289052 92.861475 122.905181 91.895287 122.905181 
C 90.9291 122.905181 90.002354 123.289052 89.319156 123.97225 
C 88.635958 124.655448 88.252087 125.582193 88.252087 126.548381 
C 88.252087 127.514569 88.635958 128.441315 89.319156 129.124513 
C 90.002354 129.807711 90.9291 130.191581 91.895287 130.191581 
z
" clip-path="url(#p7b8ed83586)" style="fill: #c8c8c8; opacity: 0.3"/>
   </g>
   <g id="patch_19">
    <path d="M 101.003287 30.003581 
C 101.969475 30.003581 102.896221 29.619711 103.579419 28.936513 
C 104.262617 28.253315 104.646488 27.326569 104.646488 26.360381 
C 104.646488 25.394193 104.262617 24.467448 103.579419 23.78425 
C 102.896221 23.101052 101.969475 22.717181 101.003287 22.717181 
C 100.0371 22.717181 99.110354 23.101052 98.427156 23.78425 
C 97.743958 24.467448 97.360087 25.394193 97.360087 26.360381 
C 97.360087 27.326569 97.743958 28.253315 98.427156 28.936513 
C 99.110354 29.619711 100.0371 30.003581 101.003287 30.003581 
z
" clip-path="url(#p7b8ed83586)" style="fill: #fce6d5; opacity: 0.4; stroke: #000000; stroke-linejoin: miter"/>
   </g>
   <g id="patch_20">
    <path d="M 101.003287 130.191581 
C 101.969475 130.191581 102.896221 129.807711 103.579419 129.124513 
C 104.262617 128.441315 104.646488 127.514569 104.646488 126.548381 
C 104.646488 125.582193 104.262617 124.655448 103.579419 123.97225 
C 102.896221 123.289052 101.969475 122.905181 101.003287 122.905181 
C 100.0371 122.905181 99.110354 123.289052 98.427156 123.97225 
C 97.743958 124.655448 97.360087 125.582193 97.360087 126.548381 
C 97.360087 127.514569 97.743958 128.441315 98.427156 129.124513 
C 99.110354 129.807711 100.0371 130.191581 101.003287 130.191581 
z
" clip-path="url(#p7b8ed83586)" style="fill: #c8c8c8; opacity: 0.3"/>
   </g>
   <g id="patch_21">
    <path d="M 110.111288 30.003581 
C 111.077475 30.003581 112.004221 29.619711 112.687419 28.936513 
C 113.370617 28.253315 113.754488 27.326569 113.754488 26.360381 
C 113.754488 25.394193 113.370617 24.467448 112.687419 23.78425 
C 112.004221 23.101052 111.077475 22.717181 110.111288 22.717181 
C 109.1451 22.717181 108.218354 23.101052 107.535156 23.78425 
C 106.851958 24.467448 106.468087 25.394193 106.468087 26.360381 
C 106.468087 27.326569 106.851958 28.253315 107.535156 28.936513 
C 108.218354 29.619711 109.1451 30.003581 110.111288 30.003581 
z
" clip-path="url(#p7b8ed83586)" style="fill: #fce6d5; opacity: 0.4; stroke: #000000; stroke-linejoin: miter"/>
   </g>
   <g id="patch_22">
    <path d="M 110.111288 130.191581 
C 111.077475 130.191581 112.004221 129.807711 112.687419 129.124513 
C 113.370617 128.441315 113.754488 127.514569 113.754488 126.548381 
C 113.754488 125.582193 113.370617 124.655448 112.687419 123.97225 
C 112.004221 123.289052 111.077475 122.905181 110.111288 122.905181 
C 109.1451 122.905181 108.218354 123.289052 107.535156 123.97225 
C 106.851958 124.655448 106.468087 125.582193 106.468087 126.548381 
C 106.468087 127.514569 106.851958 128.441315 107.535156 129.124513 
C 108.218354 129.807711 109.1451 130.191581 110.111288 130.191581 
z
" clip-path="url(#p7b8ed83586)" style="fill: #c8c8c8; opacity: 0.3"/>
   </g>
   <g id="patch_23">
    <path d="M 28.139288 48.219581 
C 29.105475 48.219581 30.032221 47.835711 30.715419 47.152513 
C 31.398617 46.469315 31.782488 45.542569 31.782488 44.576381 
C 31.782488 43.610193 31.398617 42.683448 30.715419 42.00025 
C 30.032221 41.317052 29.105475 40.933181 28.139288 40.933181 
C 27.1731 40.933181 26.246354 41.317052 25.563156 42.00025 
C 24.879958 42.683448 24.496088 43.610193 24.496088 44.576381 
C 24.496088 45.542569 24.879958 46.469315 25.563156 47.152513 
C 26.246354 47.835711 27.1731 48.219581 28.139288 48.219581 
z
" clip-path="url(#p7b8ed83586)" style="fill: #c8c8c8; opacity: 0.3"/>
   </g>
   <g id="patch_24">
    <path d="M 128.327288 48.219581 
C 129.293475 48.219581 130.220221 47.835711 130.903419 47.152513 
C 131.586617 46.469315 131.970488 45.542569 131.970488 44.576381 
C 131.970488 43.610193 131.586617 42.683448 130.903419 42.00025 
C 130.220221 41.317052 129.293475 40.933181 128.327288 40.933181 
C 127.3611 40.933181 126.434354 41.317052 125.751156 42.00025 
C 125.067958 42.683448 124.684088 43.610193 124.684088 44.576381 
C 124.684088 45.542569 125.067958 46.469315 125.751156 47.152513 
C 126.434354 47.835711 127.3611 48.219581 128.327288 48.219581 
z
" clip-path="url(#p7b8ed83586)" style="fill: #fce6d5; opacity: 0.4; stroke: #000000; stroke-linejoin: miter"/>
   </g>
   <g id="patch_25">
    <path d="M 28.139288 57.327581 
C 29.105475 57.327581 30.032221 56.943711 30.715419 56.260513 
C 31.398617 55.577315 31.782488 54.650569 31.782488 53.684381 
C 31.782488 52.718193 31.398617 51.791448 30.715419 51.10825 
C 30.032221 50.425052 29.105475 50.041181 28.139288 50.041181 
C 27.1731 50.041181 26.246354 50.425052 25.563156 51.10825 
C 24.879958 51.791448 24.496088 52.718193 24.496088 53.684381 
C 24.496088 54.650569 24.879958 55.577315 25.563156 56.260513 
C 26.246354 56.943711 27.1731 57.327581 28.139288 57.327581 
z
" clip-path="url(#p7b8ed83586)" style="fill: #c8c8c8; opacity: 0.3"/>
   </g>
   <g id="patch_26">
    <path d="M 128.327288 57.327581 
C 129.293475 57.327581 130.220221 56.943711 130.903419 56.260513 
C 131.586617 55.577315 131.970488 54.650569 131.970488 53.684381 
C 131.970488 52.718193 131.586617 51.791448 130.903419 51.10825 
C 130.220221 50.425052 129.293475 50.041181 128.327288 50.041181 
C 127.3611 50.041181 126.434354 50.425052 125.751156 51.10825 
C 125.067958 51.791448 124.684088 52.718193 124.684088 53.684381 
C 124.684088 54.650569 125.067958 55.577315 125.751156 56.260513 
C 126.434354 56.943711 127.3611 57.327581 128.327288 57.327581 
z
" clip-path="url(#p7b8ed83586)" style="fill: #fce6d5; opacity: 0.4; stroke: #000000; stroke-linejoin: miter"/>
   </g>
   <g id="patch_27">
    <path d="M 28.139288 66.435581 
C 29.105475 66.435581 30.032221 66.051711 30.715419 65.368513 
C 31.398617 64.685315 31.782488 63.758569 31.782488 62.792381 
C 31.782488 61.826193 31.398617 60.899448 30.715419 60.21625 
C 30.032221 59.533052 29.105475 59.149181 28.139288 59.149181 
C 27.1731 59.149181 26.246354 59.533052 25.563156 60.21625 
C 24.879958 60.899448 24.496088 61.826193 24.496088 62.792381 
C 24.496088 63.758569 24.879958 64.685315 25.563156 65.368513 
C 26.246354 66.051711 27.1731 66.435581 28.139288 66.435581 
z
" clip-path="url(#p7b8ed83586)" style="fill: #c8c8c8; opacity: 0.3"/>
   </g>
   <g id="patch_28">
    <path d="M 128.327288 66.435581 
C 129.293475 66.435581 130.220221 66.051711 130.903419 65.368513 
C 131.586617 64.685315 131.970488 63.758569 131.970488 62.792381 
C 131.970488 61.826193 131.586617 60.899448 130.903419 60.21625 
C 130.220221 59.533052 129.293475 59.149181 128.327288 59.149181 
C 127.3611 59.149181 126.434354 59.533052 125.751156 60.21625 
C 125.067958 60.899448 124.684088 61.826193 124.684088 62.792381 
C 124.684088 63.758569 125.067958 64.685315 125.751156 65.368513 
C 126.434354 66.051711 127.3611 66.435581 128.327288 66.435581 
z
" clip-path="url(#p7b8ed83586)" style="fill: #fce6d5; opacity: 0.4; stroke: #000000; stroke-linejoin: miter"/>
   </g>
   <g id="patch_29">
    <path d="M 28.139288 75.543581 
C 29.105475 75.543581 30.032221 75.159711 30.715419 74.476513 
C 31.398617 73.793315 31.782488 72.866569 31.782488 71.900381 
C 31.782488 70.934193 31.398617 70.007448 30.715419 69.32425 
C 30.032221 68.641052 29.105475 68.257181 28.139288 68.257181 
C 27.1731 68.257181 26.246354 68.641052 25.563156 69.32425 
C 24.879958 70.007448 24.496088 70.934193 24.496088 71.900381 
C 24.496088 72.866569 24.879958 73.793315 25.563156 74.476513 
C 26.246354 75.159711 27.1731 75.543581 28.139288 75.543581 
z
" clip-path="url(#p7b8ed83586)" style="fill: #c8c8c8; opacity: 0.3"/>
   </g>
   <g id="patch_30">
    <path d="M 128.327288 75.543581 
C 129.293475 75.543581 130.220221 75.159711 130.903419 74.476513 
C 131.586617 73.793315 131.970488 72.866569 131.970488 71.900381 
C 131.970488 70.934193 131.586617 70.007448 130.903419 69.32425 
C 130.220221 68.641052 129.293475 68.257181 128.327288 68.257181 
C 127.3611 68.257181 126.434354 68.641052 125.751156 69.32425 
C 125.067958 70.007448 124.684088 70.934193 124.684088 71.900381 
C 124.684088 72.866569 125.067958 73.793315 125.751156 74.476513 
C 126.434354 75.159711 127.3611 75.543581 128.327288 75.543581 
z
" clip-path="url(#p7b8ed83586)" style="fill: #fce6d5; opacity: 0.4; stroke: #000000; stroke-linejoin: miter"/>
   </g>
   <g id="patch_31">
    <path d="M 28.139288 84.651581 
C 29.105475 84.651581 30.032221 84.267711 30.715419 83.584513 
C 31.398617 82.901315 31.782488 81.974569 31.782488 81.008381 
C 31.782488 80.042193 31.398617 79.115448 30.715419 78.43225 
C 30.032221 77.749052 29.105475 77.365181 28.139288 77.365181 
C 27.1731 77.365181 26.246354 77.749052 25.563156 78.43225 
C 24.879958 79.115448 24.496088 80.042193 24.496088 81.008381 
C 24.496088 81.974569 24.879958 82.901315 25.563156 83.584513 
C 26.246354 84.267711 27.1731 84.651581 28.139288 84.651581 
z
" clip-path="url(#p7b8ed83586)" style="fill: #c8c8c8; opacity: 0.3"/>
   </g>
   <g id="patch_32">
    <path d="M 128.327288 84.651581 
C 129.293475 84.651581 130.220221 84.267711 130.903419 83.584513 
C 131.586617 82.901315 131.970488 81.974569 131.970488 81.008381 
C 131.970488 80.042193 131.586617 79.115448 130.903419 78.43225 
C 130.220221 77.749052 129.293475 77.365181 128.327288 77.365181 
C 127.3611 77.365181 126.434354 77.749052 125.751156 78.43225 
C 125.067958 79.115448 124.684088 80.042193 124.684088 81.008381 
C 124.684088 81.974569 125.067958 82.901315 125.751156 83.584513 
C 126.434354 84.267711 127.3611 84.651581 128.327288 84.651581 
z
" clip-path="url(#p7b8ed83586)" style="fill: #fce6d5; opacity: 0.4; stroke: #000000; stroke-linejoin: miter"/>
   </g>
   <g id="patch_33">
    <path d="M 28.139288 93.759581 
C 29.105475 93.759581 30.032221 93.375711 30.715419 92.692513 
C 31.398617 92.009315 31.782488 91.082569 31.782488 90.116381 
C 31.782488 89.150193 31.398617 88.223448 30.715419 87.54025 
C 30.032221 86.857052 29.105475 86.473181 28.139288 86.473181 
C 27.1731 86.473181 26.246354 86.857052 25.563156 87.54025 
C 24.879958 88.223448 24.496088 89.150193 24.496088 90.116381 
C 24.496088 91.082569 24.879958 92.009315 25.563156 92.692513 
C 26.246354 93.375711 27.1731 93.759581 28.139288 93.759581 
z
" clip-path="url(#p7b8ed83586)" style="fill: #c8c8c8; opacity: 0.3"/>
   </g>
   <g id="patch_34">
    <path d="M 128.327288 93.759581 
C 129.293475 93.759581 130.220221 93.375711 130.903419 92.692513 
C 131.586617 92.009315 131.970488 91.082569 131.970488 90.116381 
C 131.970488 89.150193 131.586617 88.223448 130.903419 87.54025 
C 130.220221 86.857052 129.293475 86.473181 128.327288 86.473181 
C 127.3611 86.473181 126.434354 86.857052 125.751156 87.54025 
C 125.067958 88.223448 124.684088 89.150193 124.684088 90.116381 
C 124.684088 91.082569 125.067958 92.009315 125.751156 92.692513 
C 126.434354 93.375711 127.3611 93.759581 128.327288 93.759581 
z
" clip-path="url(#p7b8ed83586)" style="fill: #fce6d5; opacity: 0.4; stroke: #000000; stroke-linejoin: miter"/>
   </g>
   <g id="patch_35">
    <path d="M 28.139288 102.867581 
C 29.105475 102.867581 30.032221 102.483711 30.715419 101.800513 
C 31.398617 101.117315 31.782488 100.190569 31.782488 99.224381 
C 31.782488 98.258193 31.398617 97.331448 30.715419 96.64825 
C 30.032221 95.965052 29.105475 95.581181 28.139288 95.581181 
C 27.1731 95.581181 26.246354 95.965052 25.563156 96.64825 
C 24.879958 97.331448 24.496088 98.258193 24.496088 99.224381 
C 24.496088 100.190569 24.879958 101.117315 25.563156 101.800513 
C 26.246354 102.483711 27.1731 102.867581 28.139288 102.867581 
z
" clip-path="url(#p7b8ed83586)" style="fill: #c8c8c8; opacity: 0.3"/>
   </g>
   <g id="patch_36">
    <path d="M 128.327288 102.867581 
C 129.293475 102.867581 130.220221 102.483711 130.903419 101.800513 
C 131.586617 101.117315 131.970488 100.190569 131.970488 99.224381 
C 131.970488 98.258193 131.586617 97.331448 130.903419 96.64825 
C 130.220221 95.965052 129.293475 95.581181 128.327288 95.581181 
C 127.3611 95.581181 126.434354 95.965052 125.751156 96.64825 
C 125.067958 97.331448 124.684088 98.258193 124.684088 99.224381 
C 124.684088 100.190569 125.067958 101.117315 125.751156 101.800513 
C 126.434354 102.483711 127.3611 102.867581 128.327288 102.867581 
z
" clip-path="url(#p7b8ed83586)" style="fill: #fce6d5; opacity: 0.4; stroke: #000000; stroke-linejoin: miter"/>
   </g>
   <g id="patch_37">
    <path d="M 28.139288 111.975581 
C 29.105475 111.975581 30.032221 111.591711 30.715419 110.908513 
C 31.398617 110.225315 31.782488 109.298569 31.782488 108.332381 
C 31.782488 107.366193 31.398617 106.439448 30.715419 105.75625 
C 30.032221 105.073052 29.105475 104.689181 28.139288 104.689181 
C 27.1731 104.689181 26.246354 105.073052 25.563156 105.75625 
C 24.879958 106.439448 24.496088 107.366193 24.496088 108.332381 
C 24.496088 109.298569 24.879958 110.225315 25.563156 110.908513 
C 26.246354 111.591711 27.1731 111.975581 28.139288 111.975581 
z
" clip-path="url(#p7b8ed83586)" style="fill: #c8c8c8; opacity: 0.3"/>
   </g>
   <g id="patch_38">
    <path d="M 128.327288 111.975581 
C 129.293475 111.975581 130.220221 111.591711 130.903419 110.908513 
C 131.586617 110.225315 131.970488 109.298569 131.970488 108.332381 
C 131.970488 107.366193 131.586617 106.439448 130.903419 105.75625 
C 130.220221 105.073052 129.293475 104.689181 128.327288 104.689181 
C 127.3611 104.689181 126.434354 105.073052 125.751156 105.75625 
C 125.067958 106.439448 124.684088 107.366193 124.684088 108.332381 
C 124.684088 109.298569 125.067958 110.225315 125.751156 110.908513 
C 126.434354 111.591711 127.3611 111.975581 128.327288 111.975581 
z
" clip-path="url(#p7b8ed83586)" style="fill: #fce6d5; opacity: 0.4; stroke: #000000; stroke-linejoin: miter"/>
   </g>
   <g id="patch_39">
    <path d="M 46.355288 48.219581 
C 47.321475 48.219581 48.248221 47.835711 48.931419 47.152513 
C 49.614617 46.469315 49.998488 45.542569 49.998488 44.576381 
C 49.998488 43.610193 49.614617 42.683448 48.931419 42.00025 
C 48.248221 41.317052 47.321475 40.933181 46.355288 40.933181 
C 45.3891 40.933181 44.462354 41.317052 43.779156 42.00025 
C 43.095958 42.683448 42.712088 43.610193 42.712088 44.576381 
C 42.712088 45.542569 43.095958 46.469315 43.779156 47.152513 
C 44.462354 47.835711 45.3891 48.219581 46.355288 48.219581 
z
" clip-path="url(#p7b8ed83586)" style="fill: #c8c8c8; opacity: 0.3"/>
   </g>
   <g id="patch_40">
    <path d="M 55.463288 48.219581 
C 56.429475 48.219581 57.356221 47.835711 58.039419 47.152513 
C 58.722617 46.469315 59.106488 45.542569 59.106488 44.576381 
C 59.106488 43.610193 58.722617 42.683448 58.039419 42.00025 
C 57.356221 41.317052 56.429475 40.933181 55.463288 40.933181 
C 54.4971 40.933181 53.570354 41.317052 52.887156 42.00025 
C 52.203958 42.683448 51.820088 43.610193 51.820088 44.576381 
C 51.820088 45.542569 52.203958 46.469315 52.887156 47.152513 
C 53.570354 47.835711 54.4971 48.219581 55.463288 48.219581 
z
" clip-path="url(#p7b8ed83586)" style="fill: #fce6d5; opacity: 0.4; stroke: #000000; stroke-linejoin: miter"/>
   </g>
   <g id="patch_41">
    <path d="M 64.571288 48.219581 
C 65.537475 48.219581 66.464221 47.835711 67.147419 47.152513 
C 67.830617 46.469315 68.214488 45.542569 68.214488 44.576381 
C 68.214488 43.610193 67.830617 42.683448 67.147419 42.00025 
C 66.464221 41.317052 65.537475 40.933181 64.571288 40.933181 
C 63.6051 40.933181 62.678354 41.317052 61.995156 42.00025 
C 61.311958 42.683448 60.928088 43.610193 60.928088 44.576381 
C 60.928088 45.542569 61.311958 46.469315 61.995156 47.152513 
C 62.678354 47.835711 63.6051 48.219581 64.571288 48.219581 
z
" clip-path="url(#p7b8ed83586)" style="fill: #fce6d5; opacity: 0.4; stroke: #000000; stroke-linejoin: miter"/>
   </g>
   <g id="patch_42">
    <path d="M 73.679288 48.219581 
C 74.645475 48.219581 75.572221 47.835711 76.255419 47.152513 
C 76.938617 46.469315 77.322488 45.542569 77.322488 44.576381 
C 77.322488 43.610193 76.938617 42.683448 76.255419 42.00025 
C 75.572221 41.317052 74.645475 40.933181 73.679288 40.933181 
C 72.7131 40.933181 71.786354 41.317052 71.103156 42.00025 
C 70.419958 42.683448 70.036088 43.610193 70.036088 44.576381 
C 70.036088 45.542569 70.419958 46.469315 71.103156 47.152513 
C 71.786354 47.835711 72.7131 48.219581 73.679288 48.219581 
z
" clip-path="url(#p7b8ed83586)" style="fill: #fce6d5; opacity: 0.4; stroke: #000000; stroke-linejoin: miter"/>
   </g>
   <g id="patch_43">
    <path d="M 82.787288 48.219581 
C 83.753475 48.219581 84.680221 47.835711 85.363419 47.152513 
C 86.046617 46.469315 86.430487 45.542569 86.430487 44.576381 
C 86.430487 43.610193 86.046617 42.683448 85.363419 42.00025 
C 84.680221 41.317052 83.753475 40.933181 82.787288 40.933181 
C 81.8211 40.933181 80.894354 41.317052 80.211156 42.00025 
C 79.527958 42.683448 79.144088 43.610193 79.144088 44.576381 
C 79.144088 45.542569 79.527958 46.469315 80.211156 47.152513 
C 80.894354 47.835711 81.8211 48.219581 82.787288 48.219581 
z
" clip-path="url(#p7b8ed83586)" style="fill: #fce6d5; opacity: 0.4; stroke: #000000; stroke-linejoin: miter"/>
   </g>
   <g id="patch_44">
    <path d="M 91.895287 48.219581 
C 92.861475 48.219581 93.788221 47.835711 94.471419 47.152513 
C 95.154617 46.469315 95.538488 45.542569 95.538488 44.576381 
C 95.538488 43.610193 95.154617 42.683448 94.471419 42.00025 
C 93.788221 41.317052 92.861475 40.933181 91.895287 40.933181 
C 90.9291 40.933181 90.002354 41.317052 89.319156 42.00025 
C 88.635958 42.683448 88.252087 43.610193 88.252087 44.576381 
C 88.252087 45.542569 88.635958 46.469315 89.319156 47.152513 
C 90.002354 47.835711 90.9291 48.219581 91.895287 48.219581 
z
" clip-path="url(#p7b8ed83586)" style="fill: #fce6d5; opacity: 0.4; stroke: #000000; stroke-linejoin: miter"/>
   </g>
   <g id="patch_45">
    <path d="M 101.003287 48.219581 
C 101.969475 48.219581 102.896221 47.835711 103.579419 47.152513 
C 104.262617 46.469315 104.646488 45.542569 104.646488 44.576381 
C 104.646488 43.610193 104.262617 42.683448 103.579419 42.00025 
C 102.896221 41.317052 101.969475 40.933181 101.003287 40.933181 
C 100.0371 40.933181 99.110354 41.317052 98.427156 42.00025 
C 97.743958 42.683448 97.360087 43.610193 97.360087 44.576381 
C 97.360087 45.542569 97.743958 46.469315 98.427156 47.152513 
C 99.110354 47.835711 100.0371 48.219581 101.003287 48.219581 
z
" clip-path="url(#p7b8ed83586)" style="fill: #fce6d5; opacity: 0.4; stroke: #000000; stroke-linejoin: miter"/>
   </g>
   <g id="patch_46">
    <path d="M 110.111288 48.948221 
C 111.270713 48.948221 112.382808 48.487577 113.202645 47.667739 
C 114.022483 46.847901 114.483128 45.735807 114.483128 44.576381 
C 114.483128 43.416956 114.022483 42.304861 113.202645 41.485024 
C 112.382808 40.665186 111.270713 40.204541 110.111288 40.204541 
C 108.951862 40.204541 107.839767 40.665186 107.01993 41.485024 
C 106.200092 42.304861 105.739447 43.416956 105.739447 44.576381 
C 105.739447 45.735807 106.200092 46.847901 107.01993 47.667739 
C 107.839767 48.487577 108.951862 48.948221 110.111288 48.948221 
z
" clip-path="url(#p7b8ed83586)" style="fill: #808080; opacity: 0.5"/>
   </g>
   <g id="patch_47">
    <path d="M 110.111288 48.219581 
C 111.077475 48.219581 112.004221 47.835711 112.687419 47.152513 
C 113.370617 46.469315 113.754488 45.542569 113.754488 44.576381 
C 113.754488 43.610193 113.370617 42.683448 112.687419 42.00025 
C 112.004221 41.317052 111.077475 40.933181 110.111288 40.933181 
C 109.1451 40.933181 108.218354 41.317052 107.535156 42.00025 
C 106.851958 42.683448 106.468087 43.610193 106.468087 44.576381 
C 106.468087 45.542569 106.851958 46.469315 107.535156 47.152513 
C 108.218354 47.835711 109.1451 48.219581 110.111288 48.219581 
z
" clip-path="url(#p7b8ed83586)" style="fill: #ef949e; stroke: #000000; stroke-linejoin: miter"/>
   </g>
   <g id="patch_48">
    <path d="M 110.384528 41.843981 
L 109.838048 41.843981 
L 109.838048 45.997229 
L 109.291567 45.997229 
L 110.111288 47.035541 
L 110.931008 45.997229 
L 110.384528 45.997229 
z
" clip-path="url(#p7b8ed83586)" style="stroke: #000000; stroke-linejoin: miter"/>
   </g>
   <g id="patch_49">
    <path d="M 46.355288 57.327581 
C 47.321475 57.327581 48.248221 56.943711 48.931419 56.260513 
C 49.614617 55.577315 49.998488 54.650569 49.998488 53.684381 
C 49.998488 52.718193 49.614617 51.791448 48.931419 51.10825 
C 48.248221 50.425052 47.321475 50.041181 46.355288 50.041181 
C 45.3891 50.041181 44.462354 50.425052 43.779156 51.10825 
C 43.095958 51.791448 42.712088 52.718193 42.712088 53.684381 
C 42.712088 54.650569 43.095958 55.577315 43.779156 56.260513 
C 44.462354 56.943711 45.3891 57.327581 46.355288 57.327581 
z
" clip-path="url(#p7b8ed83586)" style="fill: #c8c8c8; opacity: 0.3"/>
   </g>
   <g id="patch_50">
    <path d="M 55.463288 57.327581 
C 56.429475 57.327581 57.356221 56.943711 58.039419 56.260513 
C 58.722617 55.577315 59.106488 54.650569 59.106488 53.684381 
C 59.106488 52.718193 58.722617 51.791448 58.039419 51.10825 
C 57.356221 50.425052 56.429475 50.041181 55.463288 50.041181 
C 54.4971 50.041181 53.570354 50.425052 52.887156 51.10825 
C 52.203958 51.791448 51.820088 52.718193 51.820088 53.684381 
C 51.820088 54.650569 52.203958 55.577315 52.887156 56.260513 
C 53.570354 56.943711 54.4971 57.327581 55.463288 57.327581 
z
" clip-path="url(#p7b8ed83586)" style="fill: #c8c8c8; opacity: 0.3"/>
   </g>
   <g id="patch_51">
    <path d="M 64.571288 57.327581 
C 65.537475 57.327581 66.464221 56.943711 67.147419 56.260513 
C 67.830617 55.577315 68.214488 54.650569 68.214488 53.684381 
C 68.214488 52.718193 67.830617 51.791448 67.147419 51.10825 
C 66.464221 50.425052 65.537475 50.041181 64.571288 50.041181 
C 63.6051 50.041181 62.678354 50.425052 61.995156 51.10825 
C 61.311958 51.791448 60.928088 52.718193 60.928088 53.684381 
C 60.928088 54.650569 61.311958 55.577315 61.995156 56.260513 
C 62.678354 56.943711 63.6051 57.327581 64.571288 57.327581 
z
" clip-path="url(#p7b8ed83586)" style="fill: #fce6d5; opacity: 0.4; stroke: #000000; stroke-linejoin: miter"/>
   </g>
   <g id="patch_52">
    <path d="M 73.679288 57.327581 
C 74.645475 57.327581 75.572221 56.943711 76.255419 56.260513 
C 76.938617 55.577315 77.322488 54.650569 77.322488 53.684381 
C 77.322488 52.718193 76.938617 51.791448 76.255419 51.10825 
C 75.572221 50.425052 74.645475 50.041181 73.679288 50.041181 
C 72.7131 50.041181 71.786354 50.425052 71.103156 51.10825 
C 70.419958 51.791448 70.036088 52.718193 70.036088 53.684381 
C 70.036088 54.650569 70.419958 55.577315 71.103156 56.260513 
C 71.786354 56.943711 72.7131 57.327581 73.679288 57.327581 
z
" clip-path="url(#p7b8ed83586)" style="fill: #fce6d5; opacity: 0.4; stroke: #000000; stroke-linejoin: miter"/>
   </g>
   <g id="patch_53">
    <path d="M 82.787288 57.327581 
C 83.753475 57.327581 84.680221 56.943711 85.363419 56.260513 
C 86.046617 55.577315 86.430487 54.650569 86.430487 53.684381 
C 86.430487 52.718193 86.046617 51.791448 85.363419 51.10825 
C 84.680221 50.425052 83.753475 50.041181 82.787288 50.041181 
C 81.8211 50.041181 80.894354 50.425052 80.211156 51.10825 
C 79.527958 51.791448 79.144088 52.718193 79.144088 53.684381 
C 79.144088 54.650569 79.527958 55.577315 80.211156 56.260513 
C 80.894354 56.943711 81.8211 57.327581 82.787288 57.327581 
z
" clip-path="url(#p7b8ed83586)" style="fill: #fce6d5; opacity: 0.4; stroke: #000000; stroke-linejoin: miter"/>
   </g>
   <g id="patch_54">
    <path d="M 91.895287 57.327581 
C 92.861475 57.327581 93.788221 56.943711 94.471419 56.260513 
C 95.154617 55.577315 95.538488 54.650569 95.538488 53.684381 
C 95.538488 52.718193 95.154617 51.791448 94.471419 51.10825 
C 93.788221 50.425052 92.861475 50.041181 91.895287 50.041181 
C 90.9291 50.041181 90.002354 50.425052 89.319156 51.10825 
C 88.635958 51.791448 88.252087 52.718193 88.252087 53.684381 
C 88.252087 54.650569 88.635958 55.577315 89.319156 56.260513 
C 90.002354 56.943711 90.9291 57.327581 91.895287 57.327581 
z
" clip-path="url(#p7b8ed83586)" style="fill: #fce6d5; opacity: 0.4; stroke: #000000; stroke-linejoin: miter"/>
   </g>
   <g id="patch_55">
    <path d="M 101.003287 57.327581 
C 101.969475 57.327581 102.896221 56.943711 103.579419 56.260513 
C 104.262617 55.577315 104.646488 54.650569 104.646488 53.684381 
C 104.646488 52.718193 104.262617 51.791448 103.579419 51.10825 
C 102.896221 50.425052 101.969475 50.041181 101.003287 50.041181 
C 100.0371 50.041181 99.110354 50.425052 98.427156 51.10825 
C 97.743958 51.791448 97.360087 52.718193 97.360087 53.684381 
C 97.360087 54.650569 97.743958 55.577315 98.427156 56.260513 
C 99.110354 56.943711 100.0371 57.327581 101.003287 57.327581 
z
" clip-path="url(#p7b8ed83586)" style="fill: #fce6d5; opacity: 0.4; stroke: #000000; stroke-linejoin: miter"/>
   </g>
   <g id="patch_56">
    <path d="M 110.111288 58.056221 
C 111.270713 58.056221 112.382808 57.595577 113.202645 56.775739 
C 114.022483 55.955901 114.483128 54.843807 114.483128 53.684381 
C 114.483128 52.524956 114.022483 51.412861 113.202645 50.593024 
C 112.382808 49.773186 111.270713 49.312541 110.111288 49.312541 
C 108.951862 49.312541 107.839767 49.773186 107.01993 50.593024 
C 106.200092 51.412861 105.739447 52.524956 105.739447 53.684381 
C 105.739447 54.843807 106.200092 55.955901 107.01993 56.775739 
C 107.839767 57.595577 108.951862 58.056221 110.111288 58.056221 
z
" clip-path="url(#p7b8ed83586)" style="fill: #808080; opacity: 0.5"/>
   </g>
   <g id="patch_57">
    <path d="M 110.111288 57.327581 
C 111.077475 57.327581 112.004221 56.943711 112.687419 56.260513 
C 113.370617 55.577315 113.754488 54.650569 113.754488 53.684381 
C 113.754488 52.718193 113.370617 51.791448 112.687419 51.10825 
C 112.004221 50.425052 111.077475 50.041181 110.111288 50.041181 
C 109.1451 50.041181 108.218354 50.425052 107.535156 51.10825 
C 106.851958 51.791448 106.468087 52.718193 106.468087 53.684381 
C 106.468087 54.650569 106.851958 55.577315 107.535156 56.260513 
C 108.218354 56.943711 109.1451 57.327581 110.111288 57.327581 
z
" clip-path="url(#p7b8ed83586)" style="fill: #ef949e; stroke: #000000; stroke-linejoin: miter"/>
   </g>
   <g id="patch_58">
    <path d="M 110.384528 50.951981 
L 109.838048 50.951981 
L 109.838048 55.105229 
L 109.291567 55.105229 
L 110.111288 56.143541 
L 110.931008 55.105229 
L 110.384528 55.105229 
z
" clip-path="url(#p7b8ed83586)" style="stroke: #000000; stroke-linejoin: miter"/>
   </g>
   <g id="patch_59">
    <path d="M 46.355288 66.435581 
C 47.321475 66.435581 48.248221 66.051711 48.931419 65.368513 
C 49.614617 64.685315 49.998488 63.758569 49.998488 62.792381 
C 49.998488 61.826193 49.614617 60.899448 48.931419 60.21625 
C 48.248221 59.533052 47.321475 59.149181 46.355288 59.149181 
C 45.3891 59.149181 44.462354 59.533052 43.779156 60.21625 
C 43.095958 60.899448 42.712088 61.826193 42.712088 62.792381 
C 42.712088 63.758569 43.095958 64.685315 43.779156 65.368513 
C 44.462354 66.051711 45.3891 66.435581 46.355288 66.435581 
z
" clip-path="url(#p7b8ed83586)" style="fill: #c8c8c8; opacity: 0.3"/>
   </g>
   <g id="patch_60">
    <path d="M 55.463288 66.435581 
C 56.429475 66.435581 57.356221 66.051711 58.039419 65.368513 
C 58.722617 64.685315 59.106488 63.758569 59.106488 62.792381 
C 59.106488 61.826193 58.722617 60.899448 58.039419 60.21625 
C 57.356221 59.533052 56.429475 59.149181 55.463288 59.149181 
C 54.4971 59.149181 53.570354 59.533052 52.887156 60.21625 
C 52.203958 60.899448 51.820088 61.826193 51.820088 62.792381 
C 51.820088 63.758569 52.203958 64.685315 52.887156 65.368513 
C 53.570354 66.051711 54.4971 66.435581 55.463288 66.435581 
z
" clip-path="url(#p7b8ed83586)" style="fill: #c8c8c8; opacity: 0.3"/>
   </g>
   <g id="patch_61">
    <path d="M 64.571288 66.435581 
C 65.537475 66.435581 66.464221 66.051711 67.147419 65.368513 
C 67.830617 64.685315 68.214488 63.758569 68.214488 62.792381 
C 68.214488 61.826193 67.830617 60.899448 67.147419 60.21625 
C 66.464221 59.533052 65.537475 59.149181 64.571288 59.149181 
C 63.6051 59.149181 62.678354 59.533052 61.995156 60.21625 
C 61.311958 60.899448 60.928088 61.826193 60.928088 62.792381 
C 60.928088 63.758569 61.311958 64.685315 61.995156 65.368513 
C 62.678354 66.051711 63.6051 66.435581 64.571288 66.435581 
z
" clip-path="url(#p7b8ed83586)" style="fill: #c8c8c8; opacity: 0.3"/>
   </g>
   <g id="patch_62">
    <path d="M 73.679288 66.435581 
C 74.645475 66.435581 75.572221 66.051711 76.255419 65.368513 
C 76.938617 64.685315 77.322488 63.758569 77.322488 62.792381 
C 77.322488 61.826193 76.938617 60.899448 76.255419 60.21625 
C 75.572221 59.533052 74.645475 59.149181 73.679288 59.149181 
C 72.7131 59.149181 71.786354 59.533052 71.103156 60.21625 
C 70.419958 60.899448 70.036088 61.826193 70.036088 62.792381 
C 70.036088 63.758569 70.419958 64.685315 71.103156 65.368513 
C 71.786354 66.051711 72.7131 66.435581 73.679288 66.435581 
z
" clip-path="url(#p7b8ed83586)" style="fill: #fce6d5; opacity: 0.4; stroke: #000000; stroke-linejoin: miter"/>
   </g>
   <g id="patch_63">
    <path d="M 82.787288 66.435581 
C 83.753475 66.435581 84.680221 66.051711 85.363419 65.368513 
C 86.046617 64.685315 86.430487 63.758569 86.430487 62.792381 
C 86.430487 61.826193 86.046617 60.899448 85.363419 60.21625 
C 84.680221 59.533052 83.753475 59.149181 82.787288 59.149181 
C 81.8211 59.149181 80.894354 59.533052 80.211156 60.21625 
C 79.527958 60.899448 79.144088 61.826193 79.144088 62.792381 
C 79.144088 63.758569 79.527958 64.685315 80.211156 65.368513 
C 80.894354 66.051711 81.8211 66.435581 82.787288 66.435581 
z
" clip-path="url(#p7b8ed83586)" style="fill: #fce6d5; opacity: 0.4; stroke: #000000; stroke-linejoin: miter"/>
   </g>
   <g id="patch_64">
    <path d="M 91.895287 66.435581 
C 92.861475 66.435581 93.788221 66.051711 94.471419 65.368513 
C 95.154617 64.685315 95.538488 63.758569 95.538488 62.792381 
C 95.538488 61.826193 95.154617 60.899448 94.471419 60.21625 
C 93.788221 59.533052 92.861475 59.149181 91.895287 59.149181 
C 90.9291 59.149181 90.002354 59.533052 89.319156 60.21625 
C 88.635958 60.899448 88.252087 61.826193 88.252087 62.792381 
C 88.252087 63.758569 88.635958 64.685315 89.319156 65.368513 
C 90.002354 66.051711 90.9291 66.435581 91.895287 66.435581 
z
" clip-path="url(#p7b8ed83586)" style="fill: #fce6d5; opacity: 0.4; stroke: #000000; stroke-linejoin: miter"/>
   </g>
   <g id="patch_65">
    <path d="M 101.003287 66.435581 
C 101.969475 66.435581 102.896221 66.051711 103.579419 65.368513 
C 104.262617 64.685315 104.646488 63.758569 104.646488 62.792381 
C 104.646488 61.826193 104.262617 60.899448 103.579419 60.21625 
C 102.896221 59.533052 101.969475 59.149181 101.003287 59.149181 
C 100.0371 59.149181 99.110354 59.533052 98.427156 60.21625 
C 97.743958 60.899448 97.360087 61.826193 97.360087 62.792381 
C 97.360087 63.758569 97.743958 64.685315 98.427156 65.368513 
C 99.110354 66.051711 100.0371 66.435581 101.003287 66.435581 
z
" clip-path="url(#p7b8ed83586)" style="fill: #fce6d5; opacity: 0.4; stroke: #000000; stroke-linejoin: miter"/>
   </g>
   <g id="patch_66">
    <path d="M 110.111288 67.164221 
C 111.270713 67.164221 112.382808 66.703577 113.202645 65.883739 
C 114.022483 65.063901 114.483128 63.951807 114.483128 62.792381 
C 114.483128 61.632956 114.022483 60.520861 113.202645 59.701024 
C 112.382808 58.881186 111.270713 58.420541 110.111288 58.420541 
C 108.951862 58.420541 107.839767 58.881186 107.01993 59.701024 
C 106.200092 60.520861 105.739447 61.632956 105.739447 62.792381 
C 105.739447 63.951807 106.200092 65.063901 107.01993 65.883739 
C 107.839767 66.703577 108.951862 67.164221 110.111288 67.164221 
z
" clip-path="url(#p7b8ed83586)" style="fill: #808080; opacity: 0.5"/>
   </g>
   <g id="patch_67">
    <path d="M 110.111288 66.435581 
C 111.077475 66.435581 112.004221 66.051711 112.687419 65.368513 
C 113.370617 64.685315 113.754488 63.758569 113.754488 62.792381 
C 113.754488 61.826193 113.370617 60.899448 112.687419 60.21625 
C 112.004221 59.533052 111.077475 59.149181 110.111288 59.149181 
C 109.1451 59.149181 108.218354 59.533052 107.535156 60.21625 
C 106.851958 60.899448 106.468087 61.826193 106.468087 62.792381 
C 106.468087 63.758569 106.851958 64.685315 107.535156 65.368513 
C 108.218354 66.051711 109.1451 66.435581 110.111288 66.435581 
z
" clip-path="url(#p7b8ed83586)" style="fill: #7ddfd7; stroke: #000000; stroke-linejoin: miter"/>
   </g>
   <g id="patch_68">
    <path d="M 109.838048 65.524781 
L 110.384528 65.524781 
L 110.384528 61.371533 
L 110.931008 61.371533 
L 110.111288 60.333221 
L 109.291567 61.371533 
L 109.838048 61.371533 
z
" clip-path="url(#p7b8ed83586)" style="stroke: #000000; stroke-linejoin: miter"/>
   </g>
   <g id="patch_69">
    <path d="M 46.355288 75.543581 
C 47.321475 75.543581 48.248221 75.159711 48.931419 74.476513 
C 49.614617 73.793315 49.998488 72.866569 49.998488 71.900381 
C 49.998488 70.934193 49.614617 70.007448 48.931419 69.32425 
C 48.248221 68.641052 47.321475 68.257181 46.355288 68.257181 
C 45.3891 68.257181 44.462354 68.641052 43.779156 69.32425 
C 43.095958 70.007448 42.712088 70.934193 42.712088 71.900381 
C 42.712088 72.866569 43.095958 73.793315 43.779156 74.476513 
C 44.462354 75.159711 45.3891 75.543581 46.355288 75.543581 
z
" clip-path="url(#p7b8ed83586)" style="fill: #c8c8c8; opacity: 0.3"/>
   </g>
   <g id="patch_70">
    <path d="M 55.463288 75.543581 
C 56.429475 75.543581 57.356221 75.159711 58.039419 74.476513 
C 58.722617 73.793315 59.106488 72.866569 59.106488 71.900381 
C 59.106488 70.934193 58.722617 70.007448 58.039419 69.32425 
C 57.356221 68.641052 56.429475 68.257181 55.463288 68.257181 
C 54.4971 68.257181 53.570354 68.641052 52.887156 69.32425 
C 52.203958 70.007448 51.820088 70.934193 51.820088 71.900381 
C 51.820088 72.866569 52.203958 73.793315 52.887156 74.476513 
C 53.570354 75.159711 54.4971 75.543581 55.463288 75.543581 
z
" clip-path="url(#p7b8ed83586)" style="fill: #c8c8c8; opacity: 0.3"/>
   </g>
   <g id="patch_71">
    <path d="M 64.571288 75.543581 
C 65.537475 75.543581 66.464221 75.159711 67.147419 74.476513 
C 67.830617 73.793315 68.214488 72.866569 68.214488 71.900381 
C 68.214488 70.934193 67.830617 70.007448 67.147419 69.32425 
C 66.464221 68.641052 65.537475 68.257181 64.571288 68.257181 
C 63.6051 68.257181 62.678354 68.641052 61.995156 69.32425 
C 61.311958 70.007448 60.928088 70.934193 60.928088 71.900381 
C 60.928088 72.866569 61.311958 73.793315 61.995156 74.476513 
C 62.678354 75.159711 63.6051 75.543581 64.571288 75.543581 
z
" clip-path="url(#p7b8ed83586)" style="fill: #c8c8c8; opacity: 0.3"/>
   </g>
   <g id="patch_72">
    <path d="M 73.679288 75.543581 
C 74.645475 75.543581 75.572221 75.159711 76.255419 74.476513 
C 76.938617 73.793315 77.322488 72.866569 77.322488 71.900381 
C 77.322488 70.934193 76.938617 70.007448 76.255419 69.32425 
C 75.572221 68.641052 74.645475 68.257181 73.679288 68.257181 
C 72.7131 68.257181 71.786354 68.641052 71.103156 69.32425 
C 70.419958 70.007448 70.036088 70.934193 70.036088 71.900381 
C 70.036088 72.866569 70.419958 73.793315 71.103156 74.476513 
C 71.786354 75.159711 72.7131 75.543581 73.679288 75.543581 
z
" clip-path="url(#p7b8ed83586)" style="fill: #c8c8c8; opacity: 0.3"/>
   </g>
   <g id="patch_73">
    <path d="M 82.787288 75.543581 
C 83.753475 75.543581 84.680221 75.159711 85.363419 74.476513 
C 86.046617 73.793315 86.430487 72.866569 86.430487 71.900381 
C 86.430487 70.934193 86.046617 70.007448 85.363419 69.32425 
C 84.680221 68.641052 83.753475 68.257181 82.787288 68.257181 
C 81.8211 68.257181 80.894354 68.641052 80.211156 69.32425 
C 79.527958 70.007448 79.144088 70.934193 79.144088 71.900381 
C 79.144088 72.866569 79.527958 73.793315 80.211156 74.476513 
C 80.894354 75.159711 81.8211 75.543581 82.787288 75.543581 
z
" clip-path="url(#p7b8ed83586)" style="fill: #fce6d5; opacity: 0.4; stroke: #000000; stroke-linejoin: miter"/>
   </g>
   <g id="patch_74">
    <path d="M 91.895287 75.543581 
C 92.861475 75.543581 93.788221 75.159711 94.471419 74.476513 
C 95.154617 73.793315 95.538488 72.866569 95.538488 71.900381 
C 95.538488 70.934193 95.154617 70.007448 94.471419 69.32425 
C 93.788221 68.641052 92.861475 68.257181 91.895287 68.257181 
C 90.9291 68.257181 90.002354 68.641052 89.319156 69.32425 
C 88.635958 70.007448 88.252087 70.934193 88.252087 71.900381 
C 88.252087 72.866569 88.635958 73.793315 89.319156 74.476513 
C 90.002354 75.159711 90.9291 75.543581 91.895287 75.543581 
z
" clip-path="url(#p7b8ed83586)" style="fill: #fce6d5; opacity: 0.4; stroke: #000000; stroke-linejoin: miter"/>
   </g>
   <g id="patch_75">
    <path d="M 101.003287 75.543581 
C 101.969475 75.543581 102.896221 75.159711 103.579419 74.476513 
C 104.262617 73.793315 104.646488 72.866569 104.646488 71.900381 
C 104.646488 70.934193 104.262617 70.007448 103.579419 69.32425 
C 102.896221 68.641052 101.969475 68.257181 101.003287 68.257181 
C 100.0371 68.257181 99.110354 68.641052 98.427156 69.32425 
C 97.743958 70.007448 97.360087 70.934193 97.360087 71.900381 
C 97.360087 72.866569 97.743958 73.793315 98.427156 74.476513 
C 99.110354 75.159711 100.0371 75.543581 101.003287 75.543581 
z
" clip-path="url(#p7b8ed83586)" style="fill: #fce6d5; opacity: 0.4; stroke: #000000; stroke-linejoin: miter"/>
   </g>
   <g id="patch_76">
    <path d="M 110.111288 75.543581 
C 111.077475 75.543581 112.004221 75.159711 112.687419 74.476513 
C 113.370617 73.793315 113.754488 72.866569 113.754488 71.900381 
C 113.754488 70.934193 113.370617 70.007448 112.687419 69.32425 
C 112.004221 68.641052 111.077475 68.257181 110.111288 68.257181 
C 109.1451 68.257181 108.218354 68.641052 107.535156 69.32425 
C 106.851958 70.007448 106.468087 70.934193 106.468087 71.900381 
C 106.468087 72.866569 106.851958 73.793315 107.535156 74.476513 
C 108.218354 75.159711 109.1451 75.543581 110.111288 75.543581 
z
" clip-path="url(#p7b8ed83586)" style="fill: #fce6d5; opacity: 0.4; stroke: #000000; stroke-linejoin: miter"/>
   </g>
   <g id="patch_77">
    <path d="M 46.355288 84.651581 
C 47.321475 84.651581 48.248221 84.267711 48.931419 83.584513 
C 49.614617 82.901315 49.998488 81.974569 49.998488 81.008381 
C 49.998488 80.042193 49.614617 79.115448 48.931419 78.43225 
C 48.248221 77.749052 47.321475 77.365181 46.355288 77.365181 
C 45.3891 77.365181 44.462354 77.749052 43.779156 78.43225 
C 43.095958 79.115448 42.712088 80.042193 42.712088 81.008381 
C 42.712088 81.974569 43.095958 82.901315 43.779156 83.584513 
C 44.462354 84.267711 45.3891 84.651581 46.355288 84.651581 
z
" clip-path="url(#p7b8ed83586)" style="fill: #c8c8c8; opacity: 0.3"/>
   </g>
   <g id="patch_78">
    <path d="M 55.463288 84.651581 
C 56.429475 84.651581 57.356221 84.267711 58.039419 83.584513 
C 58.722617 82.901315 59.106488 81.974569 59.106488 81.008381 
C 59.106488 80.042193 58.722617 79.115448 58.039419 78.43225 
C 57.356221 77.749052 56.429475 77.365181 55.463288 77.365181 
C 54.4971 77.365181 53.570354 77.749052 52.887156 78.43225 
C 52.203958 79.115448 51.820088 80.042193 51.820088 81.008381 
C 51.820088 81.974569 52.203958 82.901315 52.887156 83.584513 
C 53.570354 84.267711 54.4971 84.651581 55.463288 84.651581 
z
" clip-path="url(#p7b8ed83586)" style="fill: #c8c8c8; opacity: 0.3"/>
   </g>
   <g id="patch_79">
    <path d="M 64.571288 84.651581 
C 65.537475 84.651581 66.464221 84.267711 67.147419 83.584513 
C 67.830617 82.901315 68.214488 81.974569 68.214488 81.008381 
C 68.214488 80.042193 67.830617 79.115448 67.147419 78.43225 
C 66.464221 77.749052 65.537475 77.365181 64.571288 77.365181 
C 63.6051 77.365181 62.678354 77.749052 61.995156 78.43225 
C 61.311958 79.115448 60.928088 80.042193 60.928088 81.008381 
C 60.928088 81.974569 61.311958 82.901315 61.995156 83.584513 
C 62.678354 84.267711 63.6051 84.651581 64.571288 84.651581 
z
" clip-path="url(#p7b8ed83586)" style="fill: #c8c8c8; opacity: 0.3"/>
   </g>
   <g id="patch_80">
    <path d="M 73.679288 84.651581 
C 74.645475 84.651581 75.572221 84.267711 76.255419 83.584513 
C 76.938617 82.901315 77.322488 81.974569 77.322488 81.008381 
C 77.322488 80.042193 76.938617 79.115448 76.255419 78.43225 
C 75.572221 77.749052 74.645475 77.365181 73.679288 77.365181 
C 72.7131 77.365181 71.786354 77.749052 71.103156 78.43225 
C 70.419958 79.115448 70.036088 80.042193 70.036088 81.008381 
C 70.036088 81.974569 70.419958 82.901315 71.103156 83.584513 
C 71.786354 84.267711 72.7131 84.651581 73.679288 84.651581 
z
" clip-path="url(#p7b8ed83586)" style="fill: #c8c8c8; opacity: 0.3"/>
   </g>
   <g id="patch_81">
    <path d="M 82.787288 84.651581 
C 83.753475 84.651581 84.680221 84.267711 85.363419 83.584513 
C 86.046617 82.901315 86.430487 81.974569 86.430487 81.008381 
C 86.430487 80.042193 86.046617 79.115448 85.363419 78.43225 
C 84.680221 77.749052 83.753475 77.365181 82.787288 77.365181 
C 81.8211 77.365181 80.894354 77.749052 80.211156 78.43225 
C 79.527958 79.115448 79.144088 80.042193 79.144088 81.008381 
C 79.144088 81.974569 79.527958 82.901315 80.211156 83.584513 
C 80.894354 84.267711 81.8211 84.651581 82.787288 84.651581 
z
" clip-path="url(#p7b8ed83586)" style="fill: #c8c8c8; opacity: 0.3"/>
   </g>
   <g id="patch_82">
    <path d="M 91.895287 84.651581 
C 92.861475 84.651581 93.788221 84.267711 94.471419 83.584513 
C 95.154617 82.901315 95.538488 81.974569 95.538488 81.008381 
C 95.538488 80.042193 95.154617 79.115448 94.471419 78.43225 
C 93.788221 77.749052 92.861475 77.365181 91.895287 77.365181 
C 90.9291 77.365181 90.002354 77.749052 89.319156 78.43225 
C 88.635958 79.115448 88.252087 80.042193 88.252087 81.008381 
C 88.252087 81.974569 88.635958 82.901315 89.319156 83.584513 
C 90.002354 84.267711 90.9291 84.651581 91.895287 84.651581 
z
" clip-path="url(#p7b8ed83586)" style="fill: #fce6d5; opacity: 0.4; stroke: #000000; stroke-linejoin: miter"/>
   </g>
   <g id="patch_83">
    <path d="M 101.003287 84.651581 
C 101.969475 84.651581 102.896221 84.267711 103.579419 83.584513 
C 104.262617 82.901315 104.646488 81.974569 104.646488 81.008381 
C 104.646488 80.042193 104.262617 79.115448 103.579419 78.43225 
C 102.896221 77.749052 101.969475 77.365181 101.003287 77.365181 
C 100.0371 77.365181 99.110354 77.749052 98.427156 78.43225 
C 97.743958 79.115448 97.360087 80.042193 97.360087 81.008381 
C 97.360087 81.974569 97.743958 82.901315 98.427156 83.584513 
C 99.110354 84.267711 100.0371 84.651581 101.003287 84.651581 
z
" clip-path="url(#p7b8ed83586)" style="fill: #fce6d5; opacity: 0.4; stroke: #000000; stroke-linejoin: miter"/>
   </g>
   <g id="patch_84">
    <path d="M 110.111288 84.651581 
C 111.077475 84.651581 112.004221 84.267711 112.687419 83.584513 
C 113.370617 82.901315 113.754488 81.974569 113.754488 81.008381 
C 113.754488 80.042193 113.370617 79.115448 112.687419 78.43225 
C 112.004221 77.749052 111.077475 77.365181 110.111288 77.365181 
C 109.1451 77.365181 108.218354 77.749052 107.535156 78.43225 
C 106.851958 79.115448 106.468087 80.042193 106.468087 81.008381 
C 106.468087 81.974569 106.851958 82.901315 107.535156 83.584513 
C 108.218354 84.267711 109.1451 84.651581 110.111288 84.651581 
z
" clip-path="url(#p7b8ed83586)" style="fill: #fce6d5; opacity: 0.4; stroke: #000000; stroke-linejoin: miter"/>
   </g>
   <g id="patch_85">
    <path d="M 46.355288 93.759581 
C 47.321475 93.759581 48.248221 93.375711 48.931419 92.692513 
C 49.614617 92.009315 49.998488 91.082569 49.998488 90.116381 
C 49.998488 89.150193 49.614617 88.223448 48.931419 87.54025 
C 48.248221 86.857052 47.321475 86.473181 46.355288 86.473181 
C 45.3891 86.473181 44.462354 86.857052 43.779156 87.54025 
C 43.095958 88.223448 42.712088 89.150193 42.712088 90.116381 
C 42.712088 91.082569 43.095958 92.009315 43.779156 92.692513 
C 44.462354 93.375711 45.3891 93.759581 46.355288 93.759581 
z
" clip-path="url(#p7b8ed83586)" style="fill: #c8c8c8; opacity: 0.3"/>
   </g>
   <g id="patch_86">
    <path d="M 55.463288 93.759581 
C 56.429475 93.759581 57.356221 93.375711 58.039419 92.692513 
C 58.722617 92.009315 59.106488 91.082569 59.106488 90.116381 
C 59.106488 89.150193 58.722617 88.223448 58.039419 87.54025 
C 57.356221 86.857052 56.429475 86.473181 55.463288 86.473181 
C 54.4971 86.473181 53.570354 86.857052 52.887156 87.54025 
C 52.203958 88.223448 51.820088 89.150193 51.820088 90.116381 
C 51.820088 91.082569 52.203958 92.009315 52.887156 92.692513 
C 53.570354 93.375711 54.4971 93.759581 55.463288 93.759581 
z
" clip-path="url(#p7b8ed83586)" style="fill: #c8c8c8; opacity: 0.3"/>
   </g>
   <g id="patch_87">
    <path d="M 64.571288 93.759581 
C 65.537475 93.759581 66.464221 93.375711 67.147419 92.692513 
C 67.830617 92.009315 68.214488 91.082569 68.214488 90.116381 
C 68.214488 89.150193 67.830617 88.223448 67.147419 87.54025 
C 66.464221 86.857052 65.537475 86.473181 64.571288 86.473181 
C 63.6051 86.473181 62.678354 86.857052 61.995156 87.54025 
C 61.311958 88.223448 60.928088 89.150193 60.928088 90.116381 
C 60.928088 91.082569 61.311958 92.009315 61.995156 92.692513 
C 62.678354 93.375711 63.6051 93.759581 64.571288 93.759581 
z
" clip-path="url(#p7b8ed83586)" style="fill: #c8c8c8; opacity: 0.3"/>
   </g>
   <g id="patch_88">
    <path d="M 73.679288 93.759581 
C 74.645475 93.759581 75.572221 93.375711 76.255419 92.692513 
C 76.938617 92.009315 77.322488 91.082569 77.322488 90.116381 
C 77.322488 89.150193 76.938617 88.223448 76.255419 87.54025 
C 75.572221 86.857052 74.645475 86.473181 73.679288 86.473181 
C 72.7131 86.473181 71.786354 86.857052 71.103156 87.54025 
C 70.419958 88.223448 70.036088 89.150193 70.036088 90.116381 
C 70.036088 91.082569 70.419958 92.009315 71.103156 92.692513 
C 71.786354 93.375711 72.7131 93.759581 73.679288 93.759581 
z
" clip-path="url(#p7b8ed83586)" style="fill: #c8c8c8; opacity: 0.3"/>
   </g>
   <g id="patch_89">
    <path d="M 82.787288 93.759581 
C 83.753475 93.759581 84.680221 93.375711 85.363419 92.692513 
C 86.046617 92.009315 86.430487 91.082569 86.430487 90.116381 
C 86.430487 89.150193 86.046617 88.223448 85.363419 87.54025 
C 84.680221 86.857052 83.753475 86.473181 82.787288 86.473181 
C 81.8211 86.473181 80.894354 86.857052 80.211156 87.54025 
C 79.527958 88.223448 79.144088 89.150193 79.144088 90.116381 
C 79.144088 91.082569 79.527958 92.009315 80.211156 92.692513 
C 80.894354 93.375711 81.8211 93.759581 82.787288 93.759581 
z
" clip-path="url(#p7b8ed83586)" style="fill: #c8c8c8; opacity: 0.3"/>
   </g>
   <g id="patch_90">
    <path d="M 91.895287 93.759581 
C 92.861475 93.759581 93.788221 93.375711 94.471419 92.692513 
C 95.154617 92.009315 95.538488 91.082569 95.538488 90.116381 
C 95.538488 89.150193 95.154617 88.223448 94.471419 87.54025 
C 93.788221 86.857052 92.861475 86.473181 91.895287 86.473181 
C 90.9291 86.473181 90.002354 86.857052 89.319156 87.54025 
C 88.635958 88.223448 88.252087 89.150193 88.252087 90.116381 
C 88.252087 91.082569 88.635958 92.009315 89.319156 92.692513 
C 90.002354 93.375711 90.9291 93.759581 91.895287 93.759581 
z
" clip-path="url(#p7b8ed83586)" style="fill: #c8c8c8; opacity: 0.3"/>
   </g>
   <g id="patch_91">
    <path d="M 101.003287 93.759581 
C 101.969475 93.759581 102.896221 93.375711 103.579419 92.692513 
C 104.262617 92.009315 104.646488 91.082569 104.646488 90.116381 
C 104.646488 89.150193 104.262617 88.223448 103.579419 87.54025 
C 102.896221 86.857052 101.969475 86.473181 101.003287 86.473181 
C 100.0371 86.473181 99.110354 86.857052 98.427156 87.54025 
C 97.743958 88.223448 97.360087 89.150193 97.360087 90.116381 
C 97.360087 91.082569 97.743958 92.009315 98.427156 92.692513 
C 99.110354 93.375711 100.0371 93.759581 101.003287 93.759581 
z
" clip-path="url(#p7b8ed83586)" style="fill: #fce6d5; opacity: 0.4; stroke: #000000; stroke-linejoin: miter"/>
   </g>
   <g id="patch_92">
    <path d="M 110.111288 93.759581 
C 111.077475 93.759581 112.004221 93.375711 112.687419 92.692513 
C 113.370617 92.009315 113.754488 91.082569 113.754488 90.116381 
C 113.754488 89.150193 113.370617 88.223448 112.687419 87.54025 
C 112.004221 86.857052 111.077475 86.473181 110.111288 86.473181 
C 109.1451 86.473181 108.218354 86.857052 107.535156 87.54025 
C 106.851958 88.223448 106.468087 89.150193 106.468087 90.116381 
C 106.468087 91.082569 106.851958 92.009315 107.535156 92.692513 
C 108.218354 93.375711 109.1451 93.759581 110.111288 93.759581 
z
" clip-path="url(#p7b8ed83586)" style="fill: #fce6d5; opacity: 0.4; stroke: #000000; stroke-linejoin: miter"/>
   </g>
   <g id="patch_93">
    <path d="M 46.355288 102.867581 
C 47.321475 102.867581 48.248221 102.483711 48.931419 101.800513 
C 49.614617 101.117315 49.998488 100.190569 49.998488 99.224381 
C 49.998488 98.258193 49.614617 97.331448 48.931419 96.64825 
C 48.248221 95.965052 47.321475 95.581181 46.355288 95.581181 
C 45.3891 95.581181 44.462354 95.965052 43.779156 96.64825 
C 43.095958 97.331448 42.712088 98.258193 42.712088 99.224381 
C 42.712088 100.190569 43.095958 101.117315 43.779156 101.800513 
C 44.462354 102.483711 45.3891 102.867581 46.355288 102.867581 
z
" clip-path="url(#p7b8ed83586)" style="fill: #c8c8c8; opacity: 0.3"/>
   </g>
   <g id="patch_94">
    <path d="M 55.463288 102.867581 
C 56.429475 102.867581 57.356221 102.483711 58.039419 101.800513 
C 58.722617 101.117315 59.106488 100.190569 59.106488 99.224381 
C 59.106488 98.258193 58.722617 97.331448 58.039419 96.64825 
C 57.356221 95.965052 56.429475 95.581181 55.463288 95.581181 
C 54.4971 95.581181 53.570354 95.965052 52.887156 96.64825 
C 52.203958 97.331448 51.820088 98.258193 51.820088 99.224381 
C 51.820088 100.190569 52.203958 101.117315 52.887156 101.800513 
C 53.570354 102.483711 54.4971 102.867581 55.463288 102.867581 
z
" clip-path="url(#p7b8ed83586)" style="fill: #c8c8c8; opacity: 0.3"/>
   </g>
   <g id="patch_95">
    <path d="M 64.571288 102.867581 
C 65.537475 102.867581 66.464221 102.483711 67.147419 101.800513 
C 67.830617 101.117315 68.214488 100.190569 68.214488 99.224381 
C 68.214488 98.258193 67.830617 97.331448 67.147419 96.64825 
C 66.464221 95.965052 65.537475 95.581181 64.571288 95.581181 
C 63.6051 95.581181 62.678354 95.965052 61.995156 96.64825 
C 61.311958 97.331448 60.928088 98.258193 60.928088 99.224381 
C 60.928088 100.190569 61.311958 101.117315 61.995156 101.800513 
C 62.678354 102.483711 63.6051 102.867581 64.571288 102.867581 
z
" clip-path="url(#p7b8ed83586)" style="fill: #c8c8c8; opacity: 0.3"/>
   </g>
   <g id="patch_96">
    <path d="M 73.679288 102.867581 
C 74.645475 102.867581 75.572221 102.483711 76.255419 101.800513 
C 76.938617 101.117315 77.322488 100.190569 77.322488 99.224381 
C 77.322488 98.258193 76.938617 97.331448 76.255419 96.64825 
C 75.572221 95.965052 74.645475 95.581181 73.679288 95.581181 
C 72.7131 95.581181 71.786354 95.965052 71.103156 96.64825 
C 70.419958 97.331448 70.036088 98.258193 70.036088 99.224381 
C 70.036088 100.190569 70.419958 101.117315 71.103156 101.800513 
C 71.786354 102.483711 72.7131 102.867581 73.679288 102.867581 
z
" clip-path="url(#p7b8ed83586)" style="fill: #c8c8c8; opacity: 0.3"/>
   </g>
   <g id="patch_97">
    <path d="M 82.787288 102.867581 
C 83.753475 102.867581 84.680221 102.483711 85.363419 101.800513 
C 86.046617 101.117315 86.430487 100.190569 86.430487 99.224381 
C 86.430487 98.258193 86.046617 97.331448 85.363419 96.64825 
C 84.680221 95.965052 83.753475 95.581181 82.787288 95.581181 
C 81.8211 95.581181 80.894354 95.965052 80.211156 96.64825 
C 79.527958 97.331448 79.144088 98.258193 79.144088 99.224381 
C 79.144088 100.190569 79.527958 101.117315 80.211156 101.800513 
C 80.894354 102.483711 81.8211 102.867581 82.787288 102.867581 
z
" clip-path="url(#p7b8ed83586)" style="fill: #c8c8c8; opacity: 0.3"/>
   </g>
   <g id="patch_98">
    <path d="M 91.895287 102.867581 
C 92.861475 102.867581 93.788221 102.483711 94.471419 101.800513 
C 95.154617 101.117315 95.538488 100.190569 95.538488 99.224381 
C 95.538488 98.258193 95.154617 97.331448 94.471419 96.64825 
C 93.788221 95.965052 92.861475 95.581181 91.895287 95.581181 
C 90.9291 95.581181 90.002354 95.965052 89.319156 96.64825 
C 88.635958 97.331448 88.252087 98.258193 88.252087 99.224381 
C 88.252087 100.190569 88.635958 101.117315 89.319156 101.800513 
C 90.002354 102.483711 90.9291 102.867581 91.895287 102.867581 
z
" clip-path="url(#p7b8ed83586)" style="fill: #c8c8c8; opacity: 0.3"/>
   </g>
   <g id="patch_99">
    <path d="M 101.003287 102.867581 
C 101.969475 102.867581 102.896221 102.483711 103.579419 101.800513 
C 104.262617 101.117315 104.646488 100.190569 104.646488 99.224381 
C 104.646488 98.258193 104.262617 97.331448 103.579419 96.64825 
C 102.896221 95.965052 101.969475 95.581181 101.003287 95.581181 
C 100.0371 95.581181 99.110354 95.965052 98.427156 96.64825 
C 97.743958 97.331448 97.360087 98.258193 97.360087 99.224381 
C 97.360087 100.190569 97.743958 101.117315 98.427156 101.800513 
C 99.110354 102.483711 100.0371 102.867581 101.003287 102.867581 
z
" clip-path="url(#p7b8ed83586)" style="fill: #c8c8c8; opacity: 0.3"/>
   </g>
   <g id="patch_100">
    <path d="M 110.111288 102.867581 
C 111.077475 102.867581 112.004221 102.483711 112.687419 101.800513 
C 113.370617 101.117315 113.754488 100.190569 113.754488 99.224381 
C 113.754488 98.258193 113.370617 97.331448 112.687419 96.64825 
C 112.004221 95.965052 111.077475 95.581181 110.111288 95.581181 
C 109.1451 95.581181 108.218354 95.965052 107.535156 96.64825 
C 106.851958 97.331448 106.468087 98.258193 106.468087 99.224381 
C 106.468087 100.190569 106.851958 101.117315 107.535156 101.800513 
C 108.218354 102.483711 109.1451 102.867581 110.111288 102.867581 
z
" clip-path="url(#p7b8ed83586)" style="fill: #fce6d5; opacity: 0.4; stroke: #000000; stroke-linejoin: miter"/>
   </g>
   <g id="patch_101">
    <path d="M 46.355288 111.975581 
C 47.321475 111.975581 48.248221 111.591711 48.931419 110.908513 
C 49.614617 110.225315 49.998488 109.298569 49.998488 108.332381 
C 49.998488 107.366193 49.614617 106.439448 48.931419 105.75625 
C 48.248221 105.073052 47.321475 104.689181 46.355288 104.689181 
C 45.3891 104.689181 44.462354 105.073052 43.779156 105.75625 
C 43.095958 106.439448 42.712088 107.366193 42.712088 108.332381 
C 42.712088 109.298569 43.095958 110.225315 43.779156 110.908513 
C 44.462354 111.591711 45.3891 111.975581 46.355288 111.975581 
z
" clip-path="url(#p7b8ed83586)" style="fill: #c8c8c8; opacity: 0.3"/>
   </g>
   <g id="patch_102">
    <path d="M 55.463288 111.975581 
C 56.429475 111.975581 57.356221 111.591711 58.039419 110.908513 
C 58.722617 110.225315 59.106488 109.298569 59.106488 108.332381 
C 59.106488 107.366193 58.722617 106.439448 58.039419 105.75625 
C 57.356221 105.073052 56.429475 104.689181 55.463288 104.689181 
C 54.4971 104.689181 53.570354 105.073052 52.887156 105.75625 
C 52.203958 106.439448 51.820088 107.366193 51.820088 108.332381 
C 51.820088 109.298569 52.203958 110.225315 52.887156 110.908513 
C 53.570354 111.591711 54.4971 111.975581 55.463288 111.975581 
z
" clip-path="url(#p7b8ed83586)" style="fill: #c8c8c8; opacity: 0.3"/>
   </g>
   <g id="patch_103">
    <path d="M 64.571288 111.975581 
C 65.537475 111.975581 66.464221 111.591711 67.147419 110.908513 
C 67.830617 110.225315 68.214488 109.298569 68.214488 108.332381 
C 68.214488 107.366193 67.830617 106.439448 67.147419 105.75625 
C 66.464221 105.073052 65.537475 104.689181 64.571288 104.689181 
C 63.6051 104.689181 62.678354 105.073052 61.995156 105.75625 
C 61.311958 106.439448 60.928088 107.366193 60.928088 108.332381 
C 60.928088 109.298569 61.311958 110.225315 61.995156 110.908513 
C 62.678354 111.591711 63.6051 111.975581 64.571288 111.975581 
z
" clip-path="url(#p7b8ed83586)" style="fill: #c8c8c8; opacity: 0.3"/>
   </g>
   <g id="patch_104">
    <path d="M 73.679288 111.975581 
C 74.645475 111.975581 75.572221 111.591711 76.255419 110.908513 
C 76.938617 110.225315 77.322488 109.298569 77.322488 108.332381 
C 77.322488 107.366193 76.938617 106.439448 76.255419 105.75625 
C 75.572221 105.073052 74.645475 104.689181 73.679288 104.689181 
C 72.7131 104.689181 71.786354 105.073052 71.103156 105.75625 
C 70.419958 106.439448 70.036088 107.366193 70.036088 108.332381 
C 70.036088 109.298569 70.419958 110.225315 71.103156 110.908513 
C 71.786354 111.591711 72.7131 111.975581 73.679288 111.975581 
z
" clip-path="url(#p7b8ed83586)" style="fill: #c8c8c8; opacity: 0.3"/>
   </g>
   <g id="patch_105">
    <path d="M 82.787288 111.975581 
C 83.753475 111.975581 84.680221 111.591711 85.363419 110.908513 
C 86.046617 110.225315 86.430487 109.298569 86.430487 108.332381 
C 86.430487 107.366193 86.046617 106.439448 85.363419 105.75625 
C 84.680221 105.073052 83.753475 104.689181 82.787288 104.689181 
C 81.8211 104.689181 80.894354 105.073052 80.211156 105.75625 
C 79.527958 106.439448 79.144088 107.366193 79.144088 108.332381 
C 79.144088 109.298569 79.527958 110.225315 80.211156 110.908513 
C 80.894354 111.591711 81.8211 111.975581 82.787288 111.975581 
z
" clip-path="url(#p7b8ed83586)" style="fill: #c8c8c8; opacity: 0.3"/>
   </g>
   <g id="patch_106">
    <path d="M 91.895287 111.975581 
C 92.861475 111.975581 93.788221 111.591711 94.471419 110.908513 
C 95.154617 110.225315 95.538488 109.298569 95.538488 108.332381 
C 95.538488 107.366193 95.154617 106.439448 94.471419 105.75625 
C 93.788221 105.073052 92.861475 104.689181 91.895287 104.689181 
C 90.9291 104.689181 90.002354 105.073052 89.319156 105.75625 
C 88.635958 106.439448 88.252087 107.366193 88.252087 108.332381 
C 88.252087 109.298569 88.635958 110.225315 89.319156 110.908513 
C 90.002354 111.591711 90.9291 111.975581 91.895287 111.975581 
z
" clip-path="url(#p7b8ed83586)" style="fill: #c8c8c8; opacity: 0.3"/>
   </g>
   <g id="patch_107">
    <path d="M 101.003287 111.975581 
C 101.969475 111.975581 102.896221 111.591711 103.579419 110.908513 
C 104.262617 110.225315 104.646488 109.298569 104.646488 108.332381 
C 104.646488 107.366193 104.262617 106.439448 103.579419 105.75625 
C 102.896221 105.073052 101.969475 104.689181 101.003287 104.689181 
C 100.0371 104.689181 99.110354 105.073052 98.427156 105.75625 
C 97.743958 106.439448 97.360087 107.366193 97.360087 108.332381 
C 97.360087 109.298569 97.743958 110.225315 98.427156 110.908513 
C 99.110354 111.591711 100.0371 111.975581 101.003287 111.975581 
z
" clip-path="url(#p7b8ed83586)" style="fill: #c8c8c8; opacity: 0.3"/>
   </g>
   <g id="patch_108">
    <path d="M 110.111288 111.975581 
C 111.077475 111.975581 112.004221 111.591711 112.687419 110.908513 
C 113.370617 110.225315 113.754488 109.298569 113.754488 108.332381 
C 113.754488 107.366193 113.370617 106.439448 112.687419 105.75625 
C 112.004221 105.073052 111.077475 104.689181 110.111288 104.689181 
C 109.1451 104.689181 108.218354 105.073052 107.535156 105.75625 
C 106.851958 106.439448 106.468087 107.366193 106.468087 108.332381 
C 106.468087 109.298569 106.851958 110.225315 107.535156 110.908513 
C 108.218354 111.591711 109.1451 111.975581 110.111288 111.975581 
z
" clip-path="url(#p7b8ed83586)" style="fill: #c8c8c8; opacity: 0.3"/>
   </g>
   <g id="patch_109">
    <path d="M 19.298854 17.252381 
Q 77.366617 17.252381 134.316347 17.252381 
" clip-path="url(#p7b8ed83586)" style="fill: none; stroke: #000000; stroke-linecap: round"/>
    <path d="M 130.316347 15.252381 
L 134.316347 17.252381 
L 130.316347 19.252381 
z
" clip-path="url(#p7b8ed83586)" style="stroke: #000000; stroke-linecap: round"/>
   </g>
   <g id="patch_110">
    <path d="M 19.031288 17.519948 
Q 19.031288 75.587711 19.031288 132.53744 
" clip-path="url(#p7b8ed83586)" style="fill: none; stroke: #000000; stroke-linecap: round"/>
    <path d="M 21.031288 128.53744 
L 19.031288 132.53744 
L 17.031288 128.53744 
z
" clip-path="url(#p7b8ed83586)" style="stroke: #000000; stroke-linecap: round"/>
   </g>
   <g id="matplotlib.axis_1"/>
   <g id="matplotlib.axis_2"/>
   <g id="line2d_1">
    <defs>
     <path id="m29fadb4b9f" d="M 0 0.5 
C 0.132602 0.5 0.25979 0.447317 0.353553 0.353553 
C 0.447317 0.25979 0.5 0.132602 0.5 0 
C 0.5 -0.132602 0.447317 -0.25979 0.353553 -0.353553 
C 0.25979 -0.447317 0.132602 -0.5 0 -0.5 
C -0.132602 -0.5 -0.25979 -0.447317 -0.353553 -0.353553 
C -0.447317 -0.25979 -0.5 -0.132602 -0.5 0 
C -0.5 0.132602 -0.447317 0.25979 -0.353553 0.353553 
C -0.25979 0.447317 -0.132602 0.5 0 0.5 
z
" style="stroke: #000000"/>
    </defs>
    <g clip-path="url(#p7b8ed83586)">
     <use xlink:href="#m29fadb4b9f" x="35.425688" y="26.360381" style="stroke: #000000"/>
     <use xlink:href="#m29fadb4b9f" x="37.247287" y="26.360381" style="stroke: #000000"/>
     <use xlink:href="#m29fadb4b9f" x="39.068888" y="26.360381" style="stroke: #000000"/>
    </g>
   </g>
   <g id="line2d_2">
    <g clip-path="url(#p7b8ed83586)">
     <use xlink:href="#m29fadb4b9f" x="117.397688" y="26.360381" style="stroke: #000000"/>
     <use xlink:href="#m29fadb4b9f" x="119.219288" y="26.360381" style="stroke: #000000"/>
     <use xlink:href="#m29fadb4b9f" x="121.040887" y="26.360381" style="stroke: #000000"/>
    </g>
   </g>
   <g id="line2d_3">
    <g clip-path="url(#p7b8ed83586)">
     <use xlink:href="#m29fadb4b9f" x="35.425688" y="44.576381" style="stroke: #000000"/>
     <use xlink:href="#m29fadb4b9f" x="37.247287" y="44.576381" style="stroke: #000000"/>
     <use xlink:href="#m29fadb4b9f" x="39.068888" y="44.576381" style="stroke: #000000"/>
    </g>
   </g>
   <g id="line2d_4">
    <g clip-path="url(#p7b8ed83586)">
     <use xlink:href="#m29fadb4b9f" x="117.397688" y="44.576381" style="stroke: #000000"/>
     <use xlink:href="#m29fadb4b9f" x="119.219288" y="44.576381" style="stroke: #000000"/>
     <use xlink:href="#m29fadb4b9f" x="121.040887" y="44.576381" style="stroke: #000000"/>
    </g>
   </g>
   <g id="line2d_5">
    <g clip-path="url(#p7b8ed83586)">
     <use xlink:href="#m29fadb4b9f" x="35.425688" y="108.332381" style="stroke: #000000"/>
     <use xlink:href="#m29fadb4b9f" x="37.247287" y="108.332381" style="stroke: #000000"/>
     <use xlink:href="#m29fadb4b9f" x="39.068888" y="108.332381" style="stroke: #000000"/>
    </g>
   </g>
   <g id="line2d_6">
    <g clip-path="url(#p7b8ed83586)">
     <use xlink:href="#m29fadb4b9f" x="117.397688" y="108.332381" style="stroke: #000000"/>
     <use xlink:href="#m29fadb4b9f" x="119.219288" y="108.332381" style="stroke: #000000"/>
     <use xlink:href="#m29fadb4b9f" x="121.040887" y="108.332381" style="stroke: #000000"/>
    </g>
   </g>
   <g id="line2d_7">
    <g clip-path="url(#p7b8ed83586)">
     <use xlink:href="#m29fadb4b9f" x="35.425688" y="126.548381" style="stroke: #000000"/>
     <use xlink:href="#m29fadb4b9f" x="37.247287" y="126.548381" style="stroke: #000000"/>
     <use xlink:href="#m29fadb4b9f" x="39.068888" y="126.548381" style="stroke: #000000"/>
    </g>
   </g>
   <g id="line2d_8">
    <g clip-path="url(#p7b8ed83586)">
     <use xlink:href="#m29fadb4b9f" x="117.397688" y="126.548381" style="stroke: #000000"/>
     <use xlink:href="#m29fadb4b9f" x="119.219288" y="126.548381" style="stroke: #000000"/>
     <use xlink:href="#m29fadb4b9f" x="121.040887" y="126.548381" style="stroke: #000000"/>
    </g>
   </g>
   <g id="line2d_9">
    <g clip-path="url(#p7b8ed83586)">
     <use xlink:href="#m29fadb4b9f" x="28.139288" y="37.289981" style="stroke: #000000"/>
     <use xlink:href="#m29fadb4b9f" x="28.139288" y="35.468381" style="stroke: #000000"/>
     <use xlink:href="#m29fadb4b9f" x="28.139288" y="33.646781" style="stroke: #000000"/>
    </g>
   </g>
   <g id="line2d_10">
    <g clip-path="url(#p7b8ed83586)">
     <use xlink:href="#m29fadb4b9f" x="28.139288" y="119.261981" style="stroke: #000000"/>
     <use xlink:href="#m29fadb4b9f" x="28.139288" y="117.440381" style="stroke: #000000"/>
     <use xlink:href="#m29fadb4b9f" x="28.139288" y="115.618781" style="stroke: #000000"/>
    </g>
   </g>
   <g id="line2d_11">
    <g clip-path="url(#p7b8ed83586)">
     <use xlink:href="#m29fadb4b9f" x="46.355288" y="37.289981" style="stroke: #000000"/>
     <use xlink:href="#m29fadb4b9f" x="46.355288" y="35.468381" style="stroke: #000000"/>
     <use xlink:href="#m29fadb4b9f" x="46.355288" y="33.646781" style="stroke: #000000"/>
    </g>
   </g>
   <g id="line2d_12">
    <g clip-path="url(#p7b8ed83586)">
     <use xlink:href="#m29fadb4b9f" x="46.355288" y="119.261981" style="stroke: #000000"/>
     <use xlink:href="#m29fadb4b9f" x="46.355288" y="117.440381" style="stroke: #000000"/>
     <use xlink:href="#m29fadb4b9f" x="46.355288" y="115.618781" style="stroke: #000000"/>
    </g>
   </g>
   <g id="line2d_13">
    <g clip-path="url(#p7b8ed83586)">
     <use xlink:href="#m29fadb4b9f" x="110.111288" y="37.289981" style="stroke: #000000"/>
     <use xlink:href="#m29fadb4b9f" x="110.111288" y="35.468381" style="stroke: #000000"/>
     <use xlink:href="#m29fadb4b9f" x="110.111288" y="33.646781" style="stroke: #000000"/>
    </g>
   </g>
   <g id="line2d_14">
    <g clip-path="url(#p7b8ed83586)">
     <use xlink:href="#m29fadb4b9f" x="110.111288" y="119.261981" style="stroke: #000000"/>
     <use xlink:href="#m29fadb4b9f" x="110.111288" y="117.440381" style="stroke: #000000"/>
     <use xlink:href="#m29fadb4b9f" x="110.111288" y="115.618781" style="stroke: #000000"/>
    </g>
   </g>
   <g id="line2d_15">
    <g clip-path="url(#p7b8ed83586)">
     <use xlink:href="#m29fadb4b9f" x="128.327288" y="37.289981" style="stroke: #000000"/>
     <use xlink:href="#m29fadb4b9f" x="128.327288" y="35.468381" style="stroke: #000000"/>
     <use xlink:href="#m29fadb4b9f" x="128.327288" y="33.646781" style="stroke: #000000"/>
    </g>
   </g>
   <g id="line2d_16">
    <g clip-path="url(#p7b8ed83586)">
     <use xlink:href="#m29fadb4b9f" x="128.327288" y="119.261981" style="stroke: #000000"/>
     <use xlink:href="#m29fadb4b9f" x="128.327288" y="117.440381" style="stroke: #000000"/>
     <use xlink:href="#m29fadb4b9f" x="128.327288" y="115.618781" style="stroke: #000000"/>
    </g>
   </g>
   <g id="line2d_17">
    <path d="M 28.139288 18.163181 
L 28.139288 19.073981 
" clip-path="url(#p7b8ed83586)" style="fill: none; stroke: #000000; stroke-width: 1.5; stroke-linecap: square"/>
   </g>
   <g id="line2d_18">
    <path d="M 46.355288 18.163181 
L 46.355288 19.073981 
" clip-path="url(#p7b8ed83586)" style="fill: none; stroke: #000000; stroke-width: 1.5; stroke-linecap: square"/>
   </g>
   <g id="line2d_19">
    <path d="M 110.111288 18.163181 
L 110.111288 19.073981 
" clip-path="url(#p7b8ed83586)" style="fill: none; stroke: #000000; stroke-width: 1.5; stroke-linecap: square"/>
   </g>
   <g id="line2d_20">
    <path d="M 128.327288 18.163181 
L 128.327288 19.073981 
" clip-path="url(#p7b8ed83586)" style="fill: none; stroke: #000000; stroke-width: 1.5; stroke-linecap: square"/>
   </g>
   <g id="line2d_21">
    <path d="M 19.942087 26.360381 
L 20.852888 26.360381 
" clip-path="url(#p7b8ed83586)" style="fill: none; stroke: #000000; stroke-width: 1.5; stroke-linecap: square"/>
   </g>
   <g id="line2d_22">
    <path d="M 19.942087 44.576381 
L 20.852888 44.576381 
" clip-path="url(#p7b8ed83586)" style="fill: none; stroke: #000000; stroke-width: 1.5; stroke-linecap: square"/>
   </g>
   <g id="line2d_23">
    <path d="M 19.942087 108.332381 
L 20.852888 108.332381 
" clip-path="url(#p7b8ed83586)" style="fill: none; stroke: #000000; stroke-width: 1.5; stroke-linecap: square"/>
   </g>
   <g id="line2d_24">
    <path d="M 19.942087 126.548381 
L 20.852888 126.548381 
" clip-path="url(#p7b8ed83586)" style="fill: none; stroke: #000000; stroke-width: 1.5; stroke-linecap: square"/>
   </g>
   <g id="text_1">
    <text style="font-size: 9px; font-family: 'Arial'; text-anchor: start" x="137.435288" y="17.252381" transform="rotate(-0 137.435288 17.252381)">n</text>
   </g>
   <g id="text_2">
    <text style="font-size: 9px; font-family: 'Arial'; text-anchor: start" x="13.566488" y="140.210381" transform="rotate(-0 13.566488 140.210381)">m</text>
   </g>
   <g id="text_3">
    <text style="font-size: 9px; font-family: 'Arial'; text-anchor: middle" x="28.139288" y="13.642031" transform="rotate(-0 28.139288 13.642031)">0</text>
   </g>
   <g id="text_4">
    <text style="font-size: 9px; font-family: 'Arial'; text-anchor: middle" x="46.355288" y="13.642031" transform="rotate(-0 46.355288 13.642031)">5</text>
   </g>
   <g id="text_5">
    <text style="font-size: 9px; font-family: 'Arial'; text-anchor: middle" x="110.111288" y="13.642031" transform="rotate(-0 110.111288 13.642031)">12</text>
   </g>
   <g id="text_6">
    <text style="font-size: 9px; font-family: 'Arial'; text-anchor: middle" x="128.327288" y="13.642031" transform="rotate(-0 128.327288 13.642031)">14</text>
   </g>
   <g id="text_7">
    <text style="font-size: 9px; font-family: 'Arial'; text-anchor: end" x="17.209688" y="28.687022" transform="rotate(-0 17.209688 28.687022)">0</text>
   </g>
   <g id="text_8">
    <text style="font-size: 9px; font-family: 'Arial'; text-anchor: end" x="17.209688" y="46.903022" transform="rotate(-0 17.209688 46.903022)">5</text>
   </g>
   <g id="text_9">
    <text style="font-size: 9px; font-family: 'Arial'; text-anchor: end" x="17.209688" y="110.659022" transform="rotate(-0 17.209688 110.659022)">12</text>
   </g>
   <g id="text_10">
    <text style="font-size: 9px; font-family: 'Arial'; text-anchor: end" x="17.209688" y="128.875022" transform="rotate(-0 17.209688 128.875022)">14</text>
   </g>
  </g>
 </g>
 <defs>
  <clipPath id="p7b8ed83586">
   <rect x="9.923288" y="8.144381" width="127.512" height="127.512"/>
  </clipPath>
 </defs>
</svg>
